<?xml version="1.0" encoding="utf-8"?>
<!-- Generator: Adobe Illustrator 23.0.1, SVG Export Plug-In . SVG Version: 6.00 Build 0)  -->
<svg version="1.1" id="Calque_1" xmlns="http://www.w3.org/2000/svg" xmlns:xlink="http://www.w3.org/1999/xlink" x="0px" y="0px"
	 viewBox="0 0 350 100" style="enable-background:new 0 0 350 100;" xml:space="preserve">
<style type="text/css">
	.st0{fill:#FFFFFF;}
</style>
<g>
	<g>
		<g>
			
				<image style="overflow:visible;" width="128" height="128" xlink:href="A4262F5E.png"  transform="matrix(1 0 0 1 134.7774 -13.9995)"/>
		</g>
	</g>
	<path class="st0" d="M236,16h-74.8c-0.9,0-1.4,0.9-1,1.7l37.4,64.8c0.4,0.8,1.5,0.8,2,0L237,17.7C237.4,17,236.9,16,236,16z"/>
	<path class="st0" d="M143.6,2v15.5l49.8,86.3h10.4L252,20.4V2H143.6z M246.6,14.6l-45.1,78.1c-1.3,2.3-4.6,2.3-5.9,0l-45.1-78.1
		c-1.3-2.3,0.3-5.1,2.9-5.1h90.2C246.3,9.5,247.9,12.3,246.6,14.6z"/>
	<polygon class="st0" points="133.8,0 196.8,97 202.8,95 247.8,13 272.8,17 256.8,116 135.8,117 	"/>
	<path d="M85.9,49.7H94v30.4c-3.7,3.3-8.1,5.8-13.2,7.5c-5.1,1.8-10.5,2.6-16.1,2.6c-8,0-15.2-1.7-21.5-5.2
		c-6.4-3.5-11.4-8.3-15-14.5c-3.6-6.2-5.5-13.1-5.5-20.8c0-7.7,1.8-14.6,5.5-20.8c3.6-6.2,8.7-11,15-14.5c6.4-3.5,13.6-5.2,21.7-5.2
		c6.1,0,11.7,1,16.8,2.9c5.1,1.9,9.4,4.8,12.9,8.6L89.2,26c-6.3-6.2-14.3-9.3-24.1-9.3c-6.5,0-12.3,1.4-17.5,4.3
		c-5.2,2.9-9.3,6.8-12.3,11.9c-3,5.1-4.4,10.7-4.4,16.9c0,6.2,1.5,11.9,4.4,16.9c3,5,7,9,12.2,11.9c5.2,2.9,11,4.3,17.4,4.3
		c8.2,0,15.2-2.1,20.9-6.2V49.7z"/>
	<path d="M117.9,9.8h8.4v79.8h-8.4V9.8z"/>
	<path d="M327.3,82.3v7.3h-56.4V9.8h54.7v7.3h-46.3v28.4h41.3v7.2h-41.3v29.6H327.3z"/>
</g>
<rect x="148" y="-20" class="st0" width="100" height="29"/>
</svg>
