<?xml version="1.0" encoding="utf-8"?>
<!-- Generator: Adobe Illustrator 15.1.0, SVG Export Plug-In . SVG Version: 6.00 Build 0)  -->
<!DOCTYPE svg PUBLIC "-//W3C//DTD SVG 1.1//EN" "http://www.w3.org/Graphics/SVG/1.1/DTD/svg11.dtd">
<svg version="1.1" id="Calque_1" xmlns="http://www.w3.org/2000/svg" xmlns:xlink="http://www.w3.org/1999/xlink" x="0px" y="0px"
	 width="519px" height="289px" viewBox="0 0 519 289" enable-background="new 0 0 519 289" xml:space="preserve">
<path fill="#243588" d="M107.744,272.666c-25.854-12.643-51.26-38.005-55.032-88.719h32.204
	c7.919,74.07,81.546,82.553,81.546,82.553v-32.498c0,0-46.01-0.574-53.019-50.055h53.298v-26.945h-53.237
	c7.217-48.964,52.958-49,52.958-49V73.333c0,0-73.353,9.827-81.501,83.668h-32.22c8.245-108.196,113.87-111.335,113.87-111.335
	l0-33.913c0,0-151.064,12.58-151.064,158.935c0,47.562,15.952,79.932,37.479,101.978H107.744z"/>
<g>
	<path fill="#243588" d="M230.675,138.71l-2.145-9.49h-10.205l-2.145,9.49h-8.32l11.635-45.502h7.93l11.636,45.502H230.675z
		 M225.54,116.22c-0.78-3.51-1.82-8.775-2.146-11.05c-0.325,2.34-1.235,7.215-2.08,10.92l-1.235,5.525h6.695L225.54,116.22z"/>
	<path fill="#243588" d="M253.944,139.425c-4.225,0-7.605-1.17-10.791-3.705l2.73-6.565c2.86,2.016,5.46,2.99,8.19,2.99
		c2.405,0,3.575-1.104,3.575-2.795c0-1.885-1.365-2.795-6.175-5.135c-4.94-2.405-7.41-5.265-7.41-10.53
		c0-6.11,4.42-9.815,10.53-9.815c3.576,0,6.566,1.04,9.621,3.12l-2.665,6.24c-2.925-1.56-4.68-2.08-7.15-2.08
		c-1.755,0-2.86,0.975-2.86,2.34c0,1.495,1.04,2.47,5.721,4.68c5.005,2.405,7.865,5.2,7.865,10.53
		C265.125,135.72,260.445,139.425,253.944,139.425z"/>
	<path fill="#243588" d="M280.464,139.425c-4.226,0-7.605-1.17-10.79-3.705l2.73-6.565c2.859,2.016,5.459,2.99,8.189,2.99
		c2.405,0,3.575-1.104,3.575-2.795c0-1.885-1.364-2.795-6.175-5.135c-4.94-2.405-7.41-5.265-7.41-10.53
		c0-6.11,4.42-9.815,10.529-9.815c3.576,0,6.566,1.04,9.621,3.12l-2.665,6.24c-2.925-1.56-4.681-2.08-7.15-2.08
		c-1.755,0-2.86,0.975-2.86,2.34c0,1.495,1.04,2.47,5.721,4.68c5.005,2.405,7.865,5.2,7.865,10.53
		C291.645,135.72,286.965,139.425,280.464,139.425z"/>
	<path fill="#243588" d="M309.129,139.425c-7.671,0-12.936-6.175-12.936-17.681c0-11.505,5.33-17.875,13-17.875
		c7.605,0,12.871,6.24,12.871,17.746C322.064,133.121,316.733,139.425,309.129,139.425z M309.063,111.149
		c-3.705,0-5.07,4.095-5.07,10.465s1.495,10.53,5.2,10.53c3.641,0,5.07-4.68,5.07-10.4
		C314.264,115.439,312.704,111.149,309.063,111.149z"/>
	<path fill="#243588" d="M344.098,115.765c-1.17-2.795-2.535-4.615-4.811-4.615c-3.444,0-4.875,4.095-4.875,10.465
		s1.561,10.53,5.136,10.53c2.21,0,3.835-2.145,4.939-5.005l5.655,4.095c-2.015,4.745-5.395,8.19-10.66,8.19
		c-7.54,0-12.87-6.175-12.87-17.681c0-11.505,5.395-17.875,12.806-17.875c5.265,0,8.774,2.665,10.854,7.735L344.098,115.765z"/>
	<path fill="#243588" d="M360.021,101.269c-2.665,0-4.875-2.21-4.875-4.875s2.21-4.875,4.875-4.875s4.875,2.21,4.875,4.875
		S362.687,101.269,360.021,101.269z M356.187,138.71v-34.126h7.67v34.126H356.187z"/>
	<path fill="#243588" d="M385.696,138.71v-2.34c-1.56,1.95-3.899,3.055-6.11,3.055c-5.979,0-10.075-4.55-10.075-11.896
		c0-6.955,4.42-11.375,10.466-11.375c2.99,0,4.225,0.455,5.72,1.365v-2.6c0-2.405-1.04-4.225-4.095-4.225
		c-2.86,0-4.745,0.65-6.891,2.08l-3.12-5.59c3.12-2.145,6.37-3.315,10.53-3.315c7.931,0,11.246,3.9,11.246,11.375v23.466H385.696z
		 M385.696,124.28c-1.234-1.04-2.34-1.625-4.68-1.625c-2.146,0-3.705,1.885-3.705,4.745c0,3.315,1.364,5.2,3.899,5.2
		c1.82,0,3.511-1.235,4.485-2.86V124.28z"/>
	<path fill="#243588" d="M416.571,137.93c-1.69,0.91-3.575,1.495-5.851,1.495c-5.525,0-8.255-2.99-8.255-10.465v-17.096h-4.226
		v-7.28h4.226v-9.425l7.67-3.835v13.26h6.891v7.28h-6.891v16.901c0,2.535,0.975,3.38,2.795,3.38c1.495,0,3.056-0.52,4.551-1.625
		L416.571,137.93z"/>
	<path fill="#243588" d="M428.075,101.269c-2.665,0-4.875-2.21-4.875-4.875s2.21-4.875,4.875-4.875s4.875,2.21,4.875,4.875
		S430.74,101.269,428.075,101.269z M424.24,138.71v-34.126h7.67v34.126H424.24z"/>
	<path fill="#243588" d="M451.021,139.425c-7.671,0-12.936-6.175-12.936-17.681c0-11.505,5.33-17.875,13-17.875
		c7.605,0,12.871,6.24,12.871,17.746C463.956,133.121,458.625,139.425,451.021,139.425z M450.955,111.149
		c-3.705,0-5.07,4.095-5.07,10.465s1.495,10.53,5.2,10.53c3.641,0,5.07-4.68,5.07-10.4
		C456.155,115.439,454.596,111.149,450.955,111.149z"/>
	<path fill="#243588" d="M485.274,138.71V116.61c0-4.226-0.521-5.59-3.25-5.59c-1.69,0-3.641,1.495-4.551,2.86v24.831h-7.67v-34.126
		h7.67v2.34c1.69-1.82,3.9-3.055,6.37-3.055c7.28,0,9.101,4.485,9.101,12.48v22.361H485.274z"/>
	<path fill="#243588" d="M218.39,165.074v10.076h10.66v7.865h-10.66v19.695h-8.125v-45.502h23.986v7.866H218.39z"/>
	<path fill="#243588" d="M258.885,188.539h-17.226c0.325,5.266,2.47,7.605,5.46,7.605c2.73,0,3.835-0.975,5.33-2.99l5.46,4.096
		c-2.535,4.16-6.436,6.176-10.921,6.176c-8.45,0-13.065-7.215-13.065-17.746c0-11.439,5.2-17.811,12.611-17.811
		c8.58,0,12.481,8.451,12.481,17.811C259.016,186.59,258.95,187.631,258.885,188.539z M246.47,174.76
		c-2.86,0-4.42,2.471-4.811,7.475h9.686C250.955,178.074,249.785,174.76,246.47,174.76z"/>
	<path fill="#243588" d="M294.765,202.711v-22.102c0-4.225-0.455-5.59-2.99-5.59c-1.625,0-3.38,1.494-4.29,2.859v24.832h-7.67
		v-22.102c0-4.225-0.455-5.59-2.99-5.59c-1.625,0-3.381,1.494-4.29,2.859v24.832h-7.671v-34.127h7.671v2.34
		c1.69-1.82,3.899-3.055,6.11-3.055c4.16,0,6.24,1.494,7.475,3.77c1.885-2.014,4.16-3.77,7.476-3.77c7.28,0,8.841,4.484,8.841,12.48
		v22.361H294.765z"/>
	<path fill="#243588" d="M339.159,202.711v-22.102c0-4.225-0.455-5.59-2.99-5.59c-1.625,0-3.38,1.494-4.29,2.859v24.832h-7.671
		v-22.102c0-4.225-0.455-5.59-2.99-5.59c-1.625,0-3.38,1.494-4.29,2.859v24.832h-7.67v-34.127h7.67v2.34
		c1.69-1.82,3.9-3.055,6.11-3.055c4.16,0,6.24,1.494,7.476,3.77c1.885-2.014,4.16-3.77,7.476-3.77c7.28,0,8.84,4.484,8.84,12.48
		v22.361H339.159z"/>
	<path fill="#243588" d="M377.313,188.539h-17.226c0.324,5.266,2.47,7.605,5.46,7.605c2.729,0,3.835-0.975,5.33-2.99l5.46,4.096
		c-2.535,4.16-6.435,6.176-10.92,6.176c-8.45,0-13.065-7.215-13.065-17.746c0-11.439,5.2-17.811,12.61-17.811
		c8.58,0,12.48,8.451,12.48,17.811C377.443,186.59,377.378,187.631,377.313,188.539z M364.897,174.76c-2.86,0-4.42,2.471-4.81,7.475
		h9.685C369.383,178.074,368.213,174.76,364.897,174.76z"/>
	<path fill="#243588" d="M392.393,203.426c-4.225,0-7.605-1.17-10.79-3.705l2.729-6.566c2.86,2.016,5.461,2.99,8.19,2.99
		c2.405,0,3.575-1.104,3.575-2.795c0-1.885-1.365-2.795-6.175-5.135c-4.94-2.404-7.41-5.266-7.41-10.531
		c0-6.109,4.42-9.814,10.53-9.814c3.575,0,6.564,1.041,9.62,3.121l-2.665,6.24c-2.925-1.561-4.681-2.08-7.15-2.08
		c-1.755,0-2.86,0.975-2.86,2.34c0,1.494,1.04,2.469,5.721,4.68c5.005,2.404,7.865,5.199,7.865,10.529
		C403.573,199.721,398.893,203.426,392.393,203.426z"/>
	<path fill="#243588" d="M224.955,266.711v-2.34c-1.69,1.82-4.095,3.055-6.565,3.055c-6.37,0-9.945-5.721-9.945-17.746
		c0-10.4,3.12-17.811,10.595-17.811c2.275,0,4.42,1.041,5.915,2.6v-11.311l7.67-3.834v47.387H224.955z M224.955,241.945
		c-1.04-1.496-2.73-2.926-4.875-2.926c-2.73,0-3.835,2.471-3.835,10.4c0,7.475,0.78,10.855,3.965,10.855
		c1.885,0,3.835-1.496,4.745-2.859V241.945z"/>
	<path fill="#243588" d="M245.494,237.654h-5.265l0.845-16.445h9.101L245.494,237.654z"/>
	<path fill="#243588" d="M257.322,266.711v-45.502h23.336v7.801h-15.21v9.619h10.205v7.67h-10.205v12.611h15.796v7.801H257.322z"/>
	<path fill="#243588" d="M302.044,266.711v-2.34c-1.69,1.82-3.9,3.055-6.37,3.055c-7.28,0-9.101-4.486-9.101-12.48v-22.361h7.671
		v22.102c0,4.225,0.52,5.59,3.25,5.59c1.689,0,3.64-1.496,4.55-2.859v-24.832h7.67v34.127H302.044z"/>
	<path fill="#243588" d="M333.96,241.1c-1.3-1.041-2.665-1.689-4.485-1.689c-2.015,0-3.64,1.039-4.94,2.924v24.377h-7.67v-34.127
		h7.67v2.34c1.301-1.494,3.705-3.055,6.24-3.055c2.275,0,3.771,0.586,5.396,1.756L333.96,241.1z"/>
	<path fill="#243588" d="M350.535,267.426c-7.671,0-12.936-6.176-12.936-17.682c0-11.504,5.33-17.875,13-17.875
		c7.605,0,12.871,6.24,12.871,17.746S358.14,267.426,350.535,267.426z M350.47,239.15c-3.705,0-5.07,4.094-5.07,10.465
		c0,6.369,1.495,10.529,5.2,10.529c3.641,0,5.07-4.68,5.07-10.4C355.67,243.439,354.11,239.15,350.47,239.15z"/>
	<path fill="#243588" d="M382.904,267.426c-2.275,0-4.421-1.041-5.916-2.6v10.594l-7.67,3.836v-46.672h7.67v2.34
		c1.69-1.82,4.096-3.055,6.565-3.055c6.37,0,9.945,5.721,9.945,17.746C393.499,260.016,390.379,267.426,382.904,267.426z
		 M381.733,239.02c-1.885,0-3.835,1.494-4.745,2.859v15.471c1.04,1.496,2.73,2.926,4.875,2.926c2.73,0,3.836-2.471,3.836-10.4
		C385.699,242.4,384.919,239.02,381.733,239.02z"/>
	<path fill="#243588" d="M423.139,252.539h-17.226c0.324,5.266,2.47,7.605,5.46,7.605c2.73,0,3.835-0.975,5.33-2.99l5.46,4.096
		c-2.535,4.16-6.435,6.176-10.92,6.176c-8.45,0-13.065-7.215-13.065-17.746c0-11.439,5.2-17.811,12.61-17.811
		c8.58,0,12.48,8.451,12.48,17.811C423.269,250.59,423.203,251.631,423.139,252.539z M410.723,238.76
		c-2.859,0-4.42,2.471-4.81,7.475h9.685C415.208,242.074,414.038,238.76,410.723,238.76z"/>
	<path fill="#243588" d="M450.153,266.711v-1.26c-0.84,1.049-2.101,1.645-3.29,1.645c-3.221,0-5.426-2.451-5.426-6.406
		c0-3.744,2.38-6.125,5.636-6.125c1.609,0,2.274,0.244,3.08,0.734v-1.4c0-1.295-0.561-2.275-2.205-2.275
		c-1.54,0-2.556,0.352-3.711,1.121l-1.68-3.01c1.68-1.156,3.43-1.785,5.67-1.785c4.271,0,6.056,2.1,6.056,6.125v12.637H450.153z
		 M450.153,258.939c-0.665-0.561-1.261-0.875-2.521-0.875c-1.155,0-1.995,1.016-1.995,2.555c0,1.785,0.735,2.801,2.101,2.801
		c0.979,0,1.89-0.664,2.415-1.539V258.939z"/>
	<path fill="#243588" d="M460.196,246.549c-1.435,0-2.625-1.191-2.625-2.625c0-1.436,1.19-2.627,2.625-2.627
		c1.436,0,2.626,1.191,2.626,2.627C462.822,245.357,461.632,246.549,460.196,246.549z M458.132,266.711v-18.377h4.13v18.377H458.132
		z"/>
	<path fill="#243588" d="M471.397,267.096c-2.275,0-4.096-0.631-5.811-1.996l1.47-3.535c1.54,1.086,2.94,1.611,4.41,1.611
		c1.295,0,1.926-0.596,1.926-1.506c0-1.016-0.735-1.506-3.325-2.766c-2.661-1.295-3.991-2.834-3.991-5.67
		c0-3.291,2.381-5.285,5.671-5.285c1.925,0,3.535,0.559,5.181,1.68l-1.436,3.359c-1.575-0.84-2.52-1.119-3.85-1.119
		c-0.945,0-1.541,0.525-1.541,1.26c0,0.805,0.561,1.33,3.081,2.52c2.695,1.297,4.235,2.801,4.235,5.672
		C477.418,265.1,474.897,267.096,471.397,267.096z"/>
	<path fill="#243588" d="M488.092,267.096c-1.226,0-2.381-0.561-3.186-1.4v1.016h-4.131v-23.453l4.131-2.064v8.4
		c0.91-0.98,2.205-1.645,3.535-1.645c3.431,0,5.355,3.08,5.355,9.555C493.797,263.105,492.117,267.096,488.092,267.096z
		 M487.462,251.799c-1.016,0-2.065,0.805-2.556,1.541v8.33c0.56,0.805,1.47,1.574,2.625,1.574c1.471,0,2.065-1.33,2.065-5.6
		C489.597,253.619,489.177,251.799,487.462,251.799z"/>
	<path fill="#243588" d="M498.94,266.711v-23.453l4.13-2.064v25.518H498.94z"/>
</g>
</svg>
