<svg id="Calque_1" data-name="Calque 1" xmlns="http://www.w3.org/2000/svg" viewBox="0 0 167 48"><defs><style>.cls-1{fill:#e30609;}.cls-2{fill:#221f20;}</style></defs><title>logo</title><path class="cls-1" d="M14,45.42a23.34,23.34,0,0,0,5.36,1.78c.05-.43.11-.82.18-1.18a21.18,21.18,0,0,0,.39-4.3,21.29,21.29,0,0,0-.39-4.31,16.05,16.05,0,0,1-.3-3.32V28.64H13.68v5.45a21.26,21.26,0,0,0,.39,4.31,16.06,16.06,0,0,1,.3,3.33,16,16,0,0,1-.3,3.32c0,.11,0,.27-.06.38"/><path class="cls-1" d="M28.72,47.18A23.4,23.4,0,0,0,34.64,45a20.3,20.3,0,0,0,.23-3.28,21.21,21.21,0,0,0-.39-4.31,16.7,16.7,0,0,1-.24-1.8H28.65A21.08,21.08,0,0,0,29,38.4a16.13,16.13,0,0,1,.29,3.33A16.07,16.07,0,0,1,29,45c-.11.58-.21,1.29-.28,2.14"/><path class="cls-1" d="M21.24,47.39a23.33,23.33,0,0,0,2.7.27,23.24,23.24,0,0,0,2.87-.29c.06-.52.13-.93.2-1.35a21.15,21.15,0,0,0,.39-4.3A21.29,21.29,0,0,0,27,37.41a16.73,16.73,0,0,1-.24-1.8H21.19a21.08,21.08,0,0,0,.35,2.78,16.06,16.06,0,0,1,.29,3.33A16,16,0,0,1,21.54,45c-.11.63-.22,1.41-.29,2.35"/><path class="cls-1" d="M46,28.35a21.17,21.17,0,0,0-4.3-.39,21.27,21.27,0,0,0-4.31.39,16.15,16.15,0,0,1-3.32.3H28.66v5.58h5.45a21.15,21.15,0,0,0,4.31-.39,16.07,16.07,0,0,1,3.33-.29,16,16,0,0,1,3.32.29l.36.06a23.34,23.34,0,0,0,1.79-5.36c-.42-.05-.81-.11-1.16-.18"/><path class="cls-1" d="M41.74,13a21.31,21.31,0,0,0-4.31.39,16.2,16.2,0,0,1-1.8.24v5.59a21.23,21.23,0,0,0,2.78-.35,16.11,16.11,0,0,1,3.33-.3,16,16,0,0,1,3.32.3c.58.11,1.29.21,2.14.28A23.32,23.32,0,0,0,45,13.28,20.11,20.11,0,0,0,41.74,13"/><path class="cls-1" d="M41.74,20.5a21.21,21.21,0,0,0-4.31.39,16.2,16.2,0,0,1-1.8.24v5.59a20.89,20.89,0,0,0,2.78-.35,16.13,16.13,0,0,1,3.33-.29,16.06,16.06,0,0,1,3.32.29c.62.11,1.4.22,2.34.29a23.44,23.44,0,0,0,.27-2.73,23.53,23.53,0,0,0-.29-2.84c-.51-.06-.93-.13-1.34-.2a21.07,21.07,0,0,0-4.3-.39"/><path class="cls-1" d="M33.91,2.47A23.37,23.37,0,0,0,28.55.67c-.05.43-.11.81-.18,1.17A21.2,21.2,0,0,0,28,6.15a21.31,21.31,0,0,0,.39,4.31,16.15,16.15,0,0,1,.29,3.32v5.45h5.58V13.78a21.21,21.21,0,0,0-.39-4.31,16.07,16.07,0,0,1-.3-3.33,16,16,0,0,1,.3-3.32c0-.11,0-.25.06-.36"/><path class="cls-1" d="M19.21.68A23.39,23.39,0,0,0,13.3,2.84a20.36,20.36,0,0,0-.24,3.31,21.31,21.31,0,0,0,.39,4.31,16.47,16.47,0,0,1,.24,1.79h5.59a21,21,0,0,0-.35-2.78,16.14,16.14,0,0,1-.3-3.33,16.05,16.05,0,0,1,.3-3.32c.11-.58.21-1.29.28-2.15"/><path class="cls-1" d="M26.69.48A23.39,23.39,0,0,0,23.94.2a23.37,23.37,0,0,0-2.83.29c-.06.52-.13.94-.2,1.35a21.18,21.18,0,0,0-.39,4.3,21.31,21.31,0,0,0,.39,4.31,16,16,0,0,1,.24,1.79h5.59a21,21,0,0,0-.35-2.78,16.09,16.09,0,0,1-.29-3.33,16,16,0,0,1,.29-3.32c.11-.62.22-1.41.29-2.35"/><path class="cls-1" d="M1.84,19.54a21.09,21.09,0,0,0,4.3.39,21.2,21.2,0,0,0,4.31-.39,16.11,16.11,0,0,1,3.32-.3h5.45V13.67H13.78a21.25,21.25,0,0,0-4.31.39,16.15,16.15,0,0,1-3.33.29,16.1,16.1,0,0,1-3.32-.29L2.46,14A23.4,23.4,0,0,0,.68,19.36c.43.05.81.11,1.17.18"/><path class="cls-1" d="M12.25,34.22V28.63A21,21,0,0,0,9.47,29a16.16,16.16,0,0,1-3.33.3A16.09,16.09,0,0,1,2.83,29c-.58-.11-1.29-.21-2.13-.28a23.32,23.32,0,0,0,2.17,5.92,20.39,20.39,0,0,0,3.28.23,21.14,21.14,0,0,0,4.31-.39,17,17,0,0,1,1.8-.24"/><path class="cls-1" d="M6.14,27.39A21.27,21.27,0,0,0,10.46,27a16.76,16.76,0,0,1,1.8-.24V21.17a21.19,21.19,0,0,0-2.78.35,16.06,16.06,0,0,1-3.33.3,16,16,0,0,1-3.32-.3c-.62-.11-1.4-.22-2.34-.29a23.33,23.33,0,0,0-.27,2.71A23.47,23.47,0,0,0,.5,26.8c.51.06.93.13,1.34.2a21.16,21.16,0,0,0,4.3.39"/><path class="cls-2" d="M56.19,38.57h1.68v1.62H56.19Zm.05,2.53h1.6v6.54h-1.6Z"/><path class="cls-2" d="M63.81,47.63v-4a1.57,1.57,0,0,0-.23-.91,1,1,0,0,0-.85-.33,1,1,0,0,0-.69.23,1.69,1.69,0,0,0-.44.6,2.42,2.42,0,0,0-.19.85c0,.32,0,.62,0,.9v2.66H59.81V41.1h1.32l.11.84a1.77,1.77,0,0,1,.82-.76,2.63,2.63,0,0,1,1.1-.24,2.35,2.35,0,0,1,.94.17,2,2,0,0,1,.69.49,2.12,2.12,0,0,1,.43.74,2.82,2.82,0,0,1,.15.93v4.36Z"/><path class="cls-2" d="M70.93,47.54a5.36,5.36,0,0,1-1.34.18,1.92,1.92,0,0,1-1.48-.53,2.11,2.11,0,0,1-.49-1.48V42.39H66.42V41.1h1.19V39.44L69.19,39v2h1.65v1.3H69.19v3.18a.73.73,0,0,0,.17.55.77.77,0,0,0,.55.17h.47l.55-.05Z"/><path class="cls-2" d="M77.67,44.42a1,1,0,0,0,0,.16v.28H73.28a2.2,2.2,0,0,0,.12.72,1.46,1.46,0,0,0,.36.57,1.86,1.86,0,0,0,.41.28,1.21,1.21,0,0,0,.56.12,1.88,1.88,0,0,0,.56-.07,1,1,0,0,0,.4-.25,1.23,1.23,0,0,0,.31-.55h1.51a1.75,1.75,0,0,1-.19.63,2.75,2.75,0,0,1-.36.57,2.32,2.32,0,0,1-1,.7,3.43,3.43,0,0,1-1.21.21,2.86,2.86,0,0,1-1.17-.22,3,3,0,0,1-1.63-1.73,4,4,0,0,1-.26-1.47,4.48,4.48,0,0,1,.23-1.46,3,3,0,0,1,.71-1.15,2.7,2.7,0,0,1,.89-.6,3,3,0,0,1,1.2-.23,3.15,3.15,0,0,1,1.36.3,2.47,2.47,0,0,1,1,.91,2.83,2.83,0,0,1,.46,1.1,6.55,6.55,0,0,1,.1,1.18m-1.57-.7a1.67,1.67,0,0,0-.4-1.14,1.14,1.14,0,0,0-.41-.28,1.55,1.55,0,0,0-.58-.1,1.41,1.41,0,0,0-.64.14,1.44,1.44,0,0,0-.7.82,2.27,2.27,0,0,0-.09.57Z"/><path class="cls-2" d="M83,42.55a2.6,2.6,0,0,0-.54-.06,1.52,1.52,0,0,0-1.26.53,2,2,0,0,0-.43,1.32v3.29H79.14V41.1h1.33l.14,1a1.49,1.49,0,0,1,.75-.82,2.49,2.49,0,0,1,1.1-.25A3.45,3.45,0,0,1,83,41Z"/><path class="cls-2" d="M88.17,47.63v-4a1.57,1.57,0,0,0-.23-.91,1,1,0,0,0-.85-.33,1,1,0,0,0-.69.23,1.69,1.69,0,0,0-.44.6,2.42,2.42,0,0,0-.19.85c0,.32,0,.62,0,.9v2.66H84.17V41.1h1.32l.11.84a1.77,1.77,0,0,1,.82-.76,2.63,2.63,0,0,1,1.1-.24,2.35,2.35,0,0,1,.93.17,2,2,0,0,1,.69.49,2.11,2.11,0,0,1,.43.74,2.83,2.83,0,0,1,.15.93v4.36Z"/><path class="cls-2" d="M97.29,47.56l-.35.13a1.62,1.62,0,0,1-.43,0,1.08,1.08,0,0,1-.79-.28,1.05,1.05,0,0,1-.31-.64,1.83,1.83,0,0,1-.75.69,2.5,2.5,0,0,1-1.23.29,2.81,2.81,0,0,1-1-.17,2.18,2.18,0,0,1-.74-.45,1.87,1.87,0,0,1-.45-.66,2,2,0,0,1-.15-.77,2,2,0,0,1,.17-.83,1.86,1.86,0,0,1,.47-.63,2.18,2.18,0,0,1,.7-.41,3.37,3.37,0,0,1,.87-.18l1.92-.14v-.4a1.18,1.18,0,0,0-.22-.75,1.09,1.09,0,0,0-.88-.28,1.38,1.38,0,0,0-.86.24.89.89,0,0,0-.33.69H91.37a2.29,2.29,0,0,1,.26-1,2,2,0,0,1,.58-.66,2.6,2.6,0,0,1,.84-.38,4,4,0,0,1,1-.13,3.63,3.63,0,0,1,1.5.29,1.79,1.79,0,0,1,.95,1,2.34,2.34,0,0,1,.16.65c0,.22,0,.45,0,.67V46a.5.5,0,0,0,.08.32.35.35,0,0,0,.28.1h.2Zm-2.1-2.83-1.66.12a1.24,1.24,0,0,0-.65.24.79.79,0,0,0,0,1.21,1,1,0,0,0,.65.22,1.85,1.85,0,0,0,1.21-.38A1.36,1.36,0,0,0,95.19,45Z"/><path class="cls-2" d="M102.3,47.54a5.36,5.36,0,0,1-1.34.18,1.92,1.92,0,0,1-1.48-.53A2.11,2.11,0,0,1,99,45.71V42.39H97.78V41.1H99V39.44l1.57-.39v2h1.65v1.3h-1.65v3.18a.73.73,0,0,0,.17.55.77.77,0,0,0,.55.17h.47l.55-.05Z"/><path class="cls-2" d="M103.6,38.57h1.68v1.62H103.6Zm.05,2.53h1.6v6.54h-1.6Z"/><path class="cls-2" d="M112.88,44.36a4.14,4.14,0,0,1-.2,1.39,3.59,3.59,0,0,1-.57,1,2.82,2.82,0,0,1-.93.72,3.18,3.18,0,0,1-2.7,0,2.81,2.81,0,0,1-.93-.72,3.59,3.59,0,0,1-.57-1A4.94,4.94,0,0,1,107,43a3.62,3.62,0,0,1,.57-1,2.84,2.84,0,0,1,.93-.72,3.18,3.18,0,0,1,2.7,0,2.85,2.85,0,0,1,.93.72,3.62,3.62,0,0,1,.57,1,4.14,4.14,0,0,1,.2,1.39m-1.59,0a4.5,4.5,0,0,0-.09-.9,1.55,1.55,0,0,0-.38-.75,1.38,1.38,0,0,0-2,0,1.53,1.53,0,0,0-.38.75,4.64,4.64,0,0,0,0,1.8,1.53,1.53,0,0,0,.38.75,1.38,1.38,0,0,0,2,0,1.55,1.55,0,0,0,.38-.75,4.5,4.5,0,0,0,.09-.9"/><path class="cls-2" d="M118.38,47.63v-4a1.57,1.57,0,0,0-.23-.91,1,1,0,0,0-.85-.33,1,1,0,0,0-.69.23,1.69,1.69,0,0,0-.44.6,2.42,2.42,0,0,0-.19.85c0,.32,0,.62,0,.9v2.66h-1.57V41.1h1.32l.11.84a1.77,1.77,0,0,1,.82-.76,2.63,2.63,0,0,1,1.1-.24,2.35,2.35,0,0,1,.93.17,2,2,0,0,1,.69.49,2.12,2.12,0,0,1,.43.74,2.83,2.83,0,0,1,.15.93v4.36Z"/><path class="cls-2" d="M127.51,47.56l-.35.13a1.62,1.62,0,0,1-.43,0,1.08,1.08,0,0,1-.79-.28,1.05,1.05,0,0,1-.31-.64,1.83,1.83,0,0,1-.75.69,2.5,2.5,0,0,1-1.23.29,2.81,2.81,0,0,1-1-.17,2.18,2.18,0,0,1-.74-.45,1.87,1.87,0,0,1-.45-.66,2,2,0,0,1-.15-.77,2,2,0,0,1,.17-.83,1.86,1.86,0,0,1,.47-.63,2.18,2.18,0,0,1,.7-.41,3.37,3.37,0,0,1,.87-.18l1.92-.14v-.4a1.18,1.18,0,0,0-.22-.75,1.09,1.09,0,0,0-.88-.28,1.37,1.37,0,0,0-.86.24.89.89,0,0,0-.33.69h-1.52a2.29,2.29,0,0,1,.26-1,2,2,0,0,1,.58-.66,2.6,2.6,0,0,1,.84-.38,4,4,0,0,1,1-.13,3.63,3.63,0,0,1,1.5.29,1.79,1.79,0,0,1,.95,1,2.34,2.34,0,0,1,.16.65c0,.22,0,.45,0,.67V46a.5.5,0,0,0,.08.32.35.35,0,0,0,.28.1h.2Zm-2.1-2.83-1.66.12a1.24,1.24,0,0,0-.65.24.79.79,0,0,0,0,1.21,1,1,0,0,0,.65.22,1.85,1.85,0,0,0,1.21-.38,1.36,1.36,0,0,0,.47-1.11Z"/><path class="cls-2" d="M131.32,47.62l-.35.07-.35,0a2,2,0,0,1-1.3-.41,1.67,1.67,0,0,1-.49-1.35v-7.4h1.58v7.14a.81.81,0,0,0,.12.46c.07.11.24.17.51.17h.27Z"/><rect class="cls-2" x="132.76" y="45.67" width="1.91" height="1.96"/><path class="cls-2" d="M142.59,44.38A4.38,4.38,0,0,1,142.3,46a2.89,2.89,0,0,1-.88,1.2,2.44,2.44,0,0,1-.7.4,2.52,2.52,0,0,1-.89.15,2.73,2.73,0,0,1-1-.21,1.68,1.68,0,0,1-.79-.66l-.1.72h-1.36V38.56h1.57v3a1.69,1.69,0,0,1,.67-.46,3,3,0,0,1,1.94,0,2.22,2.22,0,0,1,.7.39,3.57,3.57,0,0,1,1.17,2.92m-1.59,0a4.4,4.4,0,0,0-.08-.84,1.74,1.74,0,0,0-.33-.74,1.57,1.57,0,0,0-.43-.37,1.22,1.22,0,0,0-.62-.15,1.32,1.32,0,0,0-.76.19,1.36,1.36,0,0,0-.45.5,2.15,2.15,0,0,0-.22.68,4.9,4.9,0,0,0-.06.72,4.33,4.33,0,0,0,.11,1,1.54,1.54,0,0,0,.45.81,1.23,1.23,0,0,0,.39.24,1.44,1.44,0,0,0,.53.09,1.2,1.2,0,0,0,.62-.15,1.55,1.55,0,0,0,.43-.37,1.73,1.73,0,0,0,.33-.75,4.48,4.48,0,0,0,.08-.85"/><path class="cls-2" d="M149.63,44.42a1,1,0,0,0,0,.16v.28h-4.37a2.2,2.2,0,0,0,.12.72,1.46,1.46,0,0,0,.36.57,1.86,1.86,0,0,0,.41.28,1.21,1.21,0,0,0,.56.12,1.88,1.88,0,0,0,.56-.07,1,1,0,0,0,.4-.25,1.23,1.23,0,0,0,.31-.55h1.51a1.75,1.75,0,0,1-.19.63,2.75,2.75,0,0,1-.36.57,2.32,2.32,0,0,1-1,.7,3.43,3.43,0,0,1-1.21.21,2.86,2.86,0,0,1-1.17-.22,3,3,0,0,1-1.63-1.73,4,4,0,0,1-.26-1.47,4.51,4.51,0,0,1,.23-1.46,3,3,0,0,1,.71-1.15,2.69,2.69,0,0,1,.89-.6,3,3,0,0,1,1.2-.23,3.15,3.15,0,0,1,1.36.3,2.47,2.47,0,0,1,1,.91,2.83,2.83,0,0,1,.46,1.1,6.55,6.55,0,0,1,.1,1.18m-1.57-.7a1.67,1.67,0,0,0-.4-1.14,1.14,1.14,0,0,0-.41-.28,1.55,1.55,0,0,0-.58-.1,1.41,1.41,0,0,0-.64.14,1.44,1.44,0,0,0-.7.82,2.27,2.27,0,0,0-.09.57Z"/><path class="cls-2" d="M71.41,26.82A8.81,8.81,0,0,1,71,29.09a6.63,6.63,0,0,1-1.05,2,8.45,8.45,0,0,1-6.69,3.08,8.56,8.56,0,0,1-4-.92,8.74,8.74,0,0,1-2.78-2.16,9.37,9.37,0,0,1-1.62-3.2,14,14,0,0,1-.53-3.95A14,14,0,0,1,54.79,20a9.35,9.35,0,0,1,1.62-3.2,8.75,8.75,0,0,1,2.78-2.16,8.58,8.58,0,0,1,4-.92,8.46,8.46,0,0,1,6.69,3.08,6.63,6.63,0,0,1,1.05,2A8.81,8.81,0,0,1,71.41,21H66.79a4,4,0,0,0-.19-1,4.2,4.2,0,0,0-.38-.83,3.2,3.2,0,0,0-1.17-1.05,4.3,4.3,0,0,0-3.52-.08,3.94,3.94,0,0,0-1.18.86,4.34,4.34,0,0,0-1.09,2.26A16,16,0,0,0,59,23.92a15.7,15.7,0,0,0,.23,2.69,4.33,4.33,0,0,0,1.09,2.24,4.21,4.21,0,0,0,1.18.88,3.62,3.62,0,0,0,1.67.36,3.78,3.78,0,0,0,1.84-.41,3.19,3.19,0,0,0,1.17-1.05,4.14,4.14,0,0,0,.38-.83,4,4,0,0,0,.19-1Z"/><path class="cls-2" d="M91.49,33.51a9.54,9.54,0,0,1-1,.39,4.72,4.72,0,0,1-1.3.13,3.21,3.21,0,0,1-2.37-.83,3.11,3.11,0,0,1-.94-1.92,5.53,5.53,0,0,1-2.25,2.07,7.57,7.57,0,0,1-3.69.86,8.55,8.55,0,0,1-3.08-.51,6.56,6.56,0,0,1-2.2-1.35,5.6,5.6,0,0,1-1.33-2,6.07,6.07,0,0,1-.45-2.31,5.84,5.84,0,0,1,.51-2.48,5.66,5.66,0,0,1,1.41-1.88,6.49,6.49,0,0,1,2.11-1.22A10,10,0,0,1,79.46,22l5.75-.41v-1.2a3.54,3.54,0,0,0-.66-2.24,3.24,3.24,0,0,0-2.65-.85,4.12,4.12,0,0,0-2.58.71,2.67,2.67,0,0,0-1,2.07H73.78a6.86,6.86,0,0,1,.77-2.86,5.76,5.76,0,0,1,1.75-2,7.72,7.72,0,0,1,2.52-1.15,12.07,12.07,0,0,1,3.08-.38,10.91,10.91,0,0,1,4.49.88,5.37,5.37,0,0,1,2.84,3.1,7,7,0,0,1,.47,2q.09,1,.09,2v7.26a1.47,1.47,0,0,0,.24,1,1.08,1.08,0,0,0,.85.28,1.56,1.56,0,0,0,.41,0,.42.42,0,0,0,.19,0ZM85.21,25l-5,.38a3.65,3.65,0,0,0-2,.71,2.35,2.35,0,0,0,0,3.63,3.08,3.08,0,0,0,1.94.66,5.48,5.48,0,0,0,3.61-1.15A4.06,4.06,0,0,0,85.21,26Z"/><path class="cls-2" d="M105.44,18.55a7.66,7.66,0,0,0-1.62-.19,4.55,4.55,0,0,0-3.76,1.58,6.07,6.07,0,0,0-1.28,3.95v9.85H94.05V14.18h4l.41,2.93a4.42,4.42,0,0,1,2.24-2.44,7.47,7.47,0,0,1,3.29-.75,9.91,9.91,0,0,1,1.47.11Z"/><path class="cls-2" d="M107.7,6.62h5v4.85h-5Zm.15,7.56h4.77V33.74h-4.77Z"/><path class="cls-2" d="M128.46,33.47a16,16,0,0,1-4,.53A5.72,5.72,0,0,1,120,32.4,6.28,6.28,0,0,1,118.53,28V18.05H115V14.18h3.57v-5l4.7-1.16v6.13h4.93v3.87h-4.93v9.51a2.19,2.19,0,0,0,.53,1.64,2.31,2.31,0,0,0,1.65.51c.5,0,1,0,1.41,0s1-.08,1.64-.15Z"/><path class="cls-2" d="M148.62,33.51a9.54,9.54,0,0,1-1,.39,4.72,4.72,0,0,1-1.3.13,3.21,3.21,0,0,1-2.37-.83,3.11,3.11,0,0,1-.94-1.92,5.53,5.53,0,0,1-2.25,2.07,7.57,7.57,0,0,1-3.69.86,8.55,8.55,0,0,1-3.08-.51,6.56,6.56,0,0,1-2.2-1.35,5.6,5.6,0,0,1-1.33-2A6.07,6.07,0,0,1,130,28.1a5.84,5.84,0,0,1,.51-2.48,5.66,5.66,0,0,1,1.41-1.88A6.5,6.5,0,0,1,134,22.51a10,10,0,0,1,2.59-.55l5.75-.41v-1.2a3.54,3.54,0,0,0-.66-2.24,3.24,3.24,0,0,0-2.65-.85,4.12,4.12,0,0,0-2.58.71,2.67,2.67,0,0,0-1,2.07h-4.55a6.86,6.86,0,0,1,.77-2.86,5.76,5.76,0,0,1,1.75-2A7.72,7.72,0,0,1,136,14.07a12.07,12.07,0,0,1,3.08-.38,10.91,10.91,0,0,1,4.49.88,5.37,5.37,0,0,1,2.84,3.1,7,7,0,0,1,.47,2q.09,1,.09,2v7.26a1.47,1.47,0,0,0,.24,1,1.08,1.08,0,0,0,.85.28,1.56,1.56,0,0,0,.42,0,.42.42,0,0,0,.19,0ZM142.35,25l-5,.38a3.65,3.65,0,0,0-2,.71,2.36,2.36,0,0,0,0,3.63,3.08,3.08,0,0,0,1.94.66A5.48,5.48,0,0,0,141,29.28,4.06,4.06,0,0,0,142.35,26Z"/><path class="cls-2" d="M166.79,27.68a6,6,0,0,1-.47,2.48A5.94,5.94,0,0,1,165.09,32a6.93,6.93,0,0,1-2.93,1.73,12.89,12.89,0,0,1-3.76.53,10.9,10.9,0,0,1-3.5-.55,7.42,7.42,0,0,1-4.29-3.7,5.49,5.49,0,0,1-.6-2.56h4.4a2.94,2.94,0,0,0,.3,1.28,2.87,2.87,0,0,0,.75,1,3.63,3.63,0,0,0,1.26.66,6.06,6.06,0,0,0,1.71.21,9.68,9.68,0,0,0,1.3-.1,4.83,4.83,0,0,0,1.3-.36,2.62,2.62,0,0,0,1-.75,2,2,0,0,0,.39-1.28,1.88,1.88,0,0,0-.53-1.39,2.54,2.54,0,0,0-1.43-.68q-1.32-.19-2.71-.32a21,21,0,0,1-2.71-.43,6,6,0,0,1-1.82-.71,5.86,5.86,0,0,1-1.41-1.19,5.08,5.08,0,0,1-.92-1.54,5,5,0,0,1-.32-1.79,5.48,5.48,0,0,1,.57-2.58,6.26,6.26,0,0,1,1.43-1.82,7.72,7.72,0,0,1,2.6-1.45,10.91,10.91,0,0,1,6.75.06A6.63,6.63,0,0,1,164.64,16a7.25,7.25,0,0,1,1.26,1.9,5.08,5.08,0,0,1,.47,2.13H161.9a2.24,2.24,0,0,0-.23-1,3.66,3.66,0,0,0-.56-.82,2.91,2.91,0,0,0-1.11-.66,4.36,4.36,0,0,0-1.45-.24c-.35,0-.69,0-1,0a3.22,3.22,0,0,0-1,.26,2.67,2.67,0,0,0-1.07.79,2,2,0,0,0-.43,1.28,1.5,1.5,0,0,0,.73,1.45,4.61,4.61,0,0,0,1.52.51l1.13.13.9.11.94.13,1.2.19a7.12,7.12,0,0,1,3.84,1.79,4.9,4.9,0,0,1,1.5,3.74"/></svg>