<?xml version="1.0" encoding="UTF-8"?>
<svg width="83px" height="77px" viewBox="0 0 83 77" version="1.1" xmlns="http://www.w3.org/2000/svg" xmlns:xlink="http://www.w3.org/1999/xlink">
    <!-- Generator: Sketch 57.1 (83088) - https://sketch.com -->
    <title>JK-monogram-white</title>
    <desc>Created with Sketch.</desc>
    <g id="Desktop" stroke="none" stroke-width="1" fill="none" fill-rule="evenodd">
        <g id="Landing-1" transform="translate(-120.000000, -51.000000)" fill="#FFFFFF">
            <g id="Top" transform="translate(120.000000, 43.000000)">
                <g id="JK-logo-horizontal" transform="translate(0.000000, 8.000000)">
                    <g id="JK-monogram-white">
                        <g id="JK-logo">
                            <path d="M16.0892362,45.0223529 C16.0929208,48.1448619 14.2019214,50.9619467 11.2983959,52.1594194 C8.39487033,53.3568922 5.05093451,52.6988007 2.82655564,50.4921488 C0.602176777,48.2854969 -0.0643494796,44.9650873 1.13791559,42.0799121 C2.34018065,39.1947369 5.17434055,37.3132941 8.31824176,37.3132941 C12.6064811,37.3132941 16.0841976,40.7632924 16.0892362,45.0223529" id="Path" fill-rule="nonzero"></path>
                            <path d="M21.5252747,52.7404706 L21.5252747,52.7404706 L21.5252747,11.242 C21.5252747,5.03675081 26.5874099,0.00500020079 32.8351648,0 L32.8351648,41.4984706 C32.8351648,47.7037198 27.7730297,52.7354704 21.5252747,52.7404706" id="Path" fill-rule="nonzero"></path>
                            <path d="M74.198357,31.7511765 C74.2020405,34.8745094 72.3100531,37.6921666 69.405407,38.8891074 C66.500761,40.0860482 63.1561094,39.4262947 60.932449,37.2177633 C58.7087885,35.0092319 58.0445155,31.6873363 59.2496557,28.8024526 C60.4547959,25.9175688 63.2917549,24.0384539 66.4364835,24.0421123 C70.7232449,24.0421123 74.198357,27.4935808 74.198357,31.7511765" id="Path" fill-rule="nonzero"></path>
                            <path d="M41.5182381,67.4429412 L41.5182381,67.4429412 L41.5182381,25.9535294 C41.5158215,22.9727989 42.7063272,20.1133286 44.8276054,18.0047838 C46.9488836,15.8962391 49.8269816,14.7115294 52.8281356,14.7115294 L52.8281356,56.1647059 C52.8305522,59.1454363 51.6400464,62.0049067 49.5187682,64.1134515 C47.39749,66.2219962 44.5193921,67.4067069 41.5182381,67.4067059" id="Path" fill-rule="nonzero"></path>
                            <path d="M62.021978,59.6342353 L79.4337363,76.9275294 C83.8488177,72.5352277 83.8488177,65.4215958 79.4337363,61.0292941 L62.021978,43.736 C59.8971231,45.8430895 58.7031115,48.7029027 58.7031115,51.6851176 C58.7031115,54.6673326 59.8971231,57.5271458 62.021978,59.6342353" id="Path" fill-rule="nonzero"></path>
                        </g>
                    </g>
                </g>
            </g>
        </g>
    </g>
</svg>