<?xml version="1.0" encoding="utf-8"?>
<!-- Generator: Adobe Illustrator 19.1.0, SVG Export Plug-In . SVG Version: 6.00 Build 0)  -->
<svg version="1.1" xmlns="http://www.w3.org/2000/svg" xmlns:xlink="http://www.w3.org/1999/xlink" x="0px" y="0px"
	 viewBox="0 0 406.2 174.9" style="enable-background:new 0 0 406.2 174.9;" xml:space="preserve">
<style type="text/css">
	.st0{fill:#EE0000;}
</style>
<g id="text">
	<g>
		<g>
			<polygon points="184,146.2 180.1,161.5 180,161.5 176.4,146.2 169,146.2 163,169.7 168.5,169.7 172.3,154.7 172.4,154.7 
				176.2,169.7 183.4,169.7 189.4,146.2 			"/>
			<path d="M152.5,146.2c-5.1,7.9-10.2,15.9-15.5,23.5h6.8l4.1-6.8h7.3l0.4,6.8h6.6c-0.8-7.8-1.7-15.8-2.2-23.5H152.5z M150.7,158
				l4.1-6.7h0.1l0.4,6.7H150.7z"/>
			<path d="M197.1,152.5c0.3-1.2,2.1-1.7,3.1-1.7c1.8,0,2.9,0.5,4.1,1.2c0,0,1.2-4.7,1.2-4.9c-1.9-1.1-4-1.4-5.6-1.4
				c-5.5,0-8.4,3.3-8.9,6.1c-1,5.5,5.5,8.5,4.8,11c-0.5,1.9-2.3,2-3.3,2c-1.7,0-3.4-0.6-4.8-1.4l-1.3,5.5c1.7,0.6,4.3,1.2,6.3,1.2
				c6.4,0,8.5-2.9,9.2-6.1C202.9,158.5,196.4,155.5,197.1,152.5z"/>
			<path d="M134.2,152.5c0.3-1.2,2.1-1.7,3.1-1.7c1.8,0,2.9,0.5,4.1,1.2c0,0,1.5-4.5,1.5-4.7c-2.1-1.3-4.4-1.5-5.9-1.5
				c-5.5,0-8.4,3.3-8.9,6.1c-1,5.5,5.5,8.5,4.8,11c-0.5,1.9-2.3,2-3.3,2c-1.7,0-3.4-0.6-4.8-1.4l-1.3,5.5c1.7,0.6,4.3,1.2,6.3,1.2
				c6.5,0,8.5-2.9,9.2-6.1C140,158.5,133.4,155.6,134.2,152.5z"/>
		</g>
		<g>
			<polygon points="293.8,161.5 293.7,161.5 290,146.2 282.7,146.2 276.7,169.7 282.1,169.7 286,154.7 286,154.7 289.9,169.7 
				297.1,169.7 303.1,146.2 297.7,146.2 			"/>
			<polygon points="224.6,151.2 233.5,151.2 234.8,146.2 219.7,146.2 213.7,169.7 219.9,169.7 222.3,160.4 229.8,160.4 231,155.4 
				223.5,155.4 			"/>
			<polygon points="322.8,146.2 305.3,146.2 304,151.2 309.7,151.2 304.9,169.7 311.2,169.7 315.9,151.2 321.5,151.2 			"/>
			<polygon points="325,146.2 319,169.7 325.2,169.7 331.2,146.2 			"/>
			<polygon points="345.2,160.4 346.5,155.3 338.7,155.3 339.8,151.2 349.6,151.2 350.9,146.2 334.9,146.2 328.9,169.7 344.9,169.7 
				346.2,164.7 336.4,164.7 337.5,160.4 			"/>
			<polygon points="384.9,160.4 386.2,155.3 378.3,155.3 379.3,151.2 389.2,151.2 390.4,146.2 374.4,146.2 368.4,169.7 384.4,169.7 
				385.7,164.6 375.9,164.6 377,160.4 			"/>
			<path d="M268.7,145.8c-7,0-12.9,4.4-14.9,12.2c-2,7.8,1.7,12.2,8.7,12.2c6.6,0,12.6-3.9,14.8-11.5l0,0
				C279.5,150.4,275.7,145.8,268.7,145.8z M271.2,158c-1,3.7-3.9,7.1-7.4,7.1c-3.7,0-4.7-3.4-3.8-7c0.9-3.6,3.6-7.1,7.4-7.1
				C271,151,272,154.2,271.2,158L271.2,158z"/>
			<path d="M397.9,152.5c0.3-1.2,2.1-1.7,3.1-1.7c1.8,0,2.9,0.5,4.1,1.2c0,0,1.2-4.7,1.2-4.9c-1.9-1.1-4-1.3-5.6-1.3
				c-5.5,0-8.4,3.3-8.9,6.1c-1,5.5,5.5,8.5,4.8,11c-0.5,1.9-2.3,2-3.3,2c-1.7,0-3.4-0.6-4.8-1.4L387,169c1.7,0.6,4.3,1.2,6.3,1.2
				c6.4,0,8.5-2.9,9.2-6.1C403.6,158.5,397,155.5,397.9,152.5z"/>
			<path d="M247.2,159.4c3.1-0.6,5.6-3.4,6.2-6c1.2-4.7-0.2-7.2-5.4-7.2h-10.5l-6,23.5h5.9l4.7-18.6h3c0.9,0,2.8,0,2.2,2.5
				c-0.5,1.9-1.9,3.1-4.6,3c0,0-0.2,0-0.2,0l-2,0l2.2,13h6.7C249.4,169.7,247.2,159.9,247.2,159.4z"/>
			<path d="M363.7,159.4c3.1-0.6,5.6-3.4,6.3-6c1.2-4.7-0.2-7.2-5.4-7.2H354l-6,23.5h5.9l4.8-18.6h3c0.9,0,2.8,0,2.2,2.5
				c-0.5,1.9-1.9,3.1-4.6,3c0,0-0.2,0-0.2,0l-2,0l2.2,13h6.7C365.9,169.7,363.8,159.9,363.7,159.4z"/>
		</g>
		<g>
			<polygon points="236.2,139.3 237.5,134.3 227.7,134.3 228.8,130 236.8,130 238.1,125 230.1,125 231.1,120.9 240.9,120.9 
				242.2,115.8 226.2,115.8 220.2,139.3 			"/>
			<polygon points="194.7,139.4 196,134.3 186.2,134.3 187.3,130 195.2,130 196.5,125 188.5,125 189.6,120.9 199.4,120.9 
				200.7,115.8 184.7,115.8 178.7,139.4 			"/>
			<path d="M249.6,139.7c1.1,0,4.2-0.4,6-0.7l1.5-5.4c-1.8,0.5-3.7,1-6.2,1c-3.8,0-4.8-3.4-3.8-7c0.8-3.1,3.7-7.1,8.5-7.1
				c1.6,0,3.1,0.4,4.5,1l1.3-5.3c-1.5-0.5-3.8-0.8-5.5-0.8c-7.1,0-13,4.4-15.1,12.2C238.8,135.4,242.6,139.7,249.6,139.7z"/>
			<polygon points="264.9,139.4 270.9,115.8 264.7,115.8 258.7,139.4 			"/>
			<polygon points="160.5,122.5 160.6,122.5 160.3,139.3 165.5,139.4 173.9,122.5 174,122.5 169.7,139.4 175,139.4 180.9,115.8 
				172.7,115.8 165.4,130.6 165.3,130.6 165.7,115.8 157,115.8 151,139.4 156.2,139.4 			"/>
			<polygon points="274,139.3 277.9,124.3 277.9,124.3 281.8,139.4 289,139.4 295,115.8 289.6,115.8 285.7,131.1 285.6,131.1 
				281.9,115.8 274.6,115.8 268.6,139.3 			"/>
			<path d="M220.9,127.6c2.5-9.9-2.9-11.7-5.8-11.7H204l-6,23.5h9.8C214.6,139.3,219.1,134.4,220.9,127.6z M214.7,127.6
				c-0.9,3.5-3.3,6.7-6.8,6.7h-2.7l3.4-13.4h3.1C215,120.9,215.8,123.2,214.7,127.6z"/>
			<path d="M302.7,122.2c0.3-1.2,2.1-1.7,3.1-1.7c1.8,0,2.9,0.5,4.1,1.2c0,0,1.2-4.6,1.2-4.9c-1.9-1.1-4-1.3-5.6-1.3
				c-5.5,0-8.4,3.3-8.9,6.1c-1,5.5,5.5,8.5,4.8,11c-0.5,1.9-2.3,2-3.3,2c-1.7,0-3.4-0.6-4.8-1.4l-1.3,5.5c1.7,0.6,4.3,1.2,6.3,1.2
				c6.4,0,8.5-2.9,9.2-6.1C308.5,128.2,301.9,125.3,302.7,122.2z"/>
		</g>
	</g>
</g>
<g id="running_x5F_man">
	<path class="st0" d="M63.5,152.4c1.7-1,5.6-3.1,6-3.4c0.7-0.4,1.2-0.4,1.2-0.2c0.1,0.9,0.1,2.7,1.2,3.1c0.3,0.1,1.2-0.3,1.3-0.1
		c0.4,0.6,0.4,0.5,0.5,0.7c0.1,0.2,0.7,0.1,0.8,0.2c0.3,0.3,0,0.7,0.2,0.8c0.3,0.3,0.8-0.2,1.1-0.1c0.5,0.1,0.6,0.7,0.5,1
		c-0.1,0.6,0.2,1.1,1.2,0.2c0.5-0.4,0.5-0.2,1-0.4c0.3-0.1,0.7-0.1,0.9,0.1c0.2,0.2,0.5,0.5,0.8,0.6c0.4,0.2,0.8,0,1.1,0.1
		c0.4,0.2,0.4,0.7,0.7,0.8c0.3,0,0.6-0.6,0.9-0.4c0.6,0.5-0.5,1.5,0.3,1.7c0.4,0.1,0.6-0.2,0.9-0.3c0.3,0,0.5-0.4,0.8-0.4
		c0.3,0,0.5,0.3,0.8,0.1c0.3-0.2,0.5-0.3,0.8-0.4c0.4-0.2,0.8-0.1,1-0.3c0.3-0.2,0.1-0.8,0.9-0.7c0.8,0.2-0.1,0.9,0.2,1.2
		c0.3,0.2,1,0,1.2-0.1c0.5-0.1,0.9-0.7,1-1.1c0.2-0.5,0.9-2,1.2-2.4c0.3-0.4,1-2,1.3-2.6c0.4-0.5,1.8-2.9,2-3.3
		c0.1-0.4,0.7-0.9,0.8-1.2c0.1-0.3,0.4-1.2,0.8-1.9c0.4-0.7,1.4-2.2,1.5-2.5c0.1-0.3,0.9-2.1,1.1-2.6c0.3-0.6,1.2-1.8,1.5-2.4
		c0.2-0.6,0.9-1.9,0.9-1.9l0.7-1.1c0,0,0.2-0.5,0.6-1.2c0.3-0.7,1.3-2.2,1.6-2.7c0.3-0.5,1.1-1.6,1.1-1.6l0.6-1.3l0.5-1
		c0,0,0.4-1.2,0.6-1.5c0.2-0.3,0.8-1.1,1-1.5c0.2-0.4,0.7-2.3,1-2.8c0.3-0.6,1.6-2.9,1.8-3.4c0.1-0.5,1.5-2.9,1.7-3.5
		c0.1-0.5,0.2-1.2,0.4-1.5c0.2-0.3,0.7-1.2,0.8-1.4c0.1-0.2,1-2.4,1.2-2.8c0.1-0.3,0.2-0.9,0.6-0.9c0.4,0,0.6,0.4,0.9,0.7
		c0.3,0.4,0.8,0.3,1.2,0.6c0.3,0.3,1.4,1.5,1.4,1.7c0,0.2,0.6,0.2,0.8,0.4c0.1,0.2,0.2,0.6,0.4,0.7c0.2,0.1,1.1,0.7,1.3,1
		c0.2,0.3,0.4,0.8,0.6,1c0.2,0.2,1.3,0.8,1.4,1.1c0.1,0.3,1.7,2.1,1.8,2.4c0.2,0.3,0.3,0.9,0.5,1.1c0.1,0.2,0.7,0.6,0.7,0.8
		c0,0.2,0.1,1.1,0.2,1.3c0.1,0.2,0.8,0.5,0.9,0.7c0.1,0.2,0.4,1.1,0.5,1.2c0.1,0.1,0.4,0.3,0.5,0.5c0.1,0.2,0.2,1.2,0.3,1.4
		c0.1,0.2,0.6,1,0.7,1.3c0.1,0.3,0.6,0.9,0.7,1.2c0.1,0.2,0.1,1.2,0.2,1.5c0.1,0.3,0.5,1,0.6,1.2c0,0.2,0.1,0.7,0.1,0.7l0.4,0.9
		c0,0,0.4,0.9,0.4,1.2c0,0.3,0.1,0.7,0.1,0.9c0,0.2,0.4,0.8,0.4,1s0.5,1.2,0.5,1.2s-0.1,0.9,0,1.2c0.1,0.2,0.5,0.9,0.5,1.1
		c0,0.2-0.1,0.8-0.1,0.8l0.2,0.4c0,0-0.1,0.5,0,0.7c0.1,0.2-0.1,0.6,0,0.7c0.1,0.1,0.5,1.1,0.5,1.1c-0.3,0.3-19.5,9.2-27.8,13.1
		c-11.9,5.5-36.6,17.9-39.2,19.4c-2.6,1.5-4.3,2.4-4.9,2.1c-1.5-0.8-3.8-2.9-5.5-7.4c-1.4-3.8-1.4-7-1.3-8.6c0.1-1.2,0-2.1,1.8-3.2
		C58.4,155.3,61.8,153.4,63.5,152.4"/>
	<path class="st0" d="M29.3,84.3c0.1,0.2,0.5,0.2,0.8,0.2c0.2,0,0.5,0.3,0.7,0.4c0.2,0,0.5-0.1,0.6,0c0.3,0.2,0.2,0.5,0.4,0.8
		c0.2,0.3,0.3,0.7,0.6,0.8c0.3,0.1,0.6,0,0.7,0.3c0.1,0.3-0.1,0.7,0.1,1.1c0.5,0.9,0.1,3.5,0.5,3.6c0.5,0.2,1.9-0.3,2.3-0.7
		c0.5-0.4,1.2-1.2,1.6-1.4c0.7-0.3,2.1-1.1,2.8-1.2c0.7-0.1,1-1.2,1.7-1.3c0.7-0.1,0.4-0.6,0.9-0.8c0.5-0.2,1.3-0.7,1.6-0.4
		c0.1,0.1,0.4,0.5,0.8,0.6c0.5,0.2,1-0.1,1.1,0.5c0.1,0.8,1.4,0.1,1.4,0.1s1.5-1,2.2-1.3c0.6-0.3,2.4-1.2,2.4-1.2s1.4-0.7,1.9-1
		c20.8-10,37.1-15.5,52.2-21.3c23.4-9.1,63.9-19.5,71.6-21.4c0.8-0.2,2.6-0.5,2.8-0.6c0.2-0.1,0.6-0.2,0.8-1
		c0.2-0.7-0.4-1.7-0.4-2.1c0-0.4,0.8-1.8,0.9-2.5c0.1-0.6-0.6-0.7-0.6-0.7s0.1-0.8-0.1-1.4c-0.2-0.6-1.2-1.1-1.4-1.6
		c-0.2-0.5,0-1.8-0.2-2.3c-0.2-0.5-0.7-0.8-0.7-0.8s0.1-0.2,0-0.6c-0.1-0.4-0.6-0.4-0.6-0.4s0.2-0.9,0.1-1.2
		c-0.1-0.3-0.6-0.6-0.6-0.6s-0.6-0.4-0.6-0.7c0-0.4-0.1-0.6-0.4-0.8c-0.3-0.2-1.1-0.2-1.4-0.3c-0.3-0.1-0.9-0.3-1.4-0.2
		c-0.5,0.1-0.6,0.5-1.9,0.7c-1.3,0.3-1.8,0-2.4,0.1c-0.6,0.1-1.2,0.5-1.8,0.6c-6.3,1.6-35,10-56.2,18c-19.7,7.4-43.2,18.1-57.5,25.5
		c-10.8,5.6-16.6,8.9-19,10.4c-1.2,0.8-2.6,1.7-2.8,2c-0.3,0.6-0.7,1.4-1.4,1.5c-0.9,0.1-0.7,0.6-1,0.7c-0.3,0.1-0.7,0.4-1,0.7
		C29.1,83.7,29.2,84.1,29.3,84.3"/>
	<path class="st0" d="M118.8,71.4c-1-0.6-0.6-1.1,0.5-1.6c6.9-2.9,24.2-9.1,34.1-12.3c8.5-2.7,31.9-10.3,38.4-12.2
		c1.6-0.4,2.2-0.4,2.9,0.3c1.8,1.9,3.5,4.4,5.1,7.5c1.5,2.9,2.8,7.1,3.3,9.7c0.4,1.9-0.5,2.3-1.6,2.7c-7.2,3.2-25.1,11.1-32.6,14.6
		c-7.3,3.4-20.6,9.8-25.1,12.1c-1.9,1-1.6,1.3-2.9-0.1c-0.4-0.4-1-1.5-1.2-1.8c-0.2-0.3-2.7-2.5-3-2.8c-0.3-0.3-1.7-1.9-2-2.2
		c-0.4-0.3-1.6-1.9-1.9-2.1c-0.4-0.2-1-0.5-1.3-0.8c-0.3-0.3-0.8-0.9-1-1c-0.3-0.2-0.9-0.8-0.9-0.8l-0.9-0.8l-0.7-0.8
		c0,0-0.6-0.8-1.1-1c-0.5-0.2-1.1-0.9-1.3-1.2c-0.2-0.3-1.7-2.1-2.4-2.6c-0.7-0.5-2.5-1.6-2.9-1.9C120.1,72.2,119.6,71.9,118.8,71.4
		"/>
	<path class="st0" d="M145.2,96.7c-0.7-0.7,0.2-0.8,1-1.1c3-1.2,21.1-6.8,36.8-10.9c15.7-4.1,38.3-8.8,41.7-9.5
		c1.4-0.3,2-0.1,2.7,1.1c0.8,1.3,2.6,5.8,3.2,9.4c0.8,4.6,0,9.2-0.4,10.3c-0.3,0.9-1.6,1-4.7,1.8c-1.8,0.5-9.6,2.5-12.8,3.4
		c-3.7,1.1-13.5,3.9-17.1,5.1c-4.5,1.5-10.3,3.5-10.3,3.5l-31.1,0.5c0,0-0.5-2.1-0.7-2.3c-0.3-0.2-0.7-1.2-1-1.5
		c-0.3-0.3-0.6-1.3-0.6-1.3s-0.3-1.1-0.6-1.3c-0.3-0.2-0.9-1.8-1.2-2c-0.3-0.2-0.9-1-1.2-1.4c-0.3-0.4-0.4-0.8-0.9-1.2
		c-0.5-0.4-1-1.1-1.4-1.3C146.2,98,145.9,97.4,145.2,96.7"/>
	<path class="st0" d="M107.6,36.8c-0.9,0-1.7,0-1.9-0.2c-0.1-0.2,0-0.4-0.2-0.6c-0.2-0.2-0.7-0.1-0.8,0c-0.1,0.1-0.1,0.1-0.4,0.2
		c-0.3,0.1-1.5-0.3-1.9-0.2c-0.4,0.1-1.3,0.2-1.6,0c-0.3-0.2-0.4-1-0.9-1.2c-0.3-0.1-1.1-0.6-1.4-1.1c-0.3-0.5-1-1.2-1.2-1.5
		c-0.2-0.3-0.4-0.9-0.5-1.2c-0.1-0.3-0.4-0.9-0.5-1.1c-0.2-0.2-0.4-0.4-0.6-0.6c-0.2-0.2-0.3-0.9-0.5-1.1c-0.1-0.1-0.3-0.4-0.4-0.7
		c-0.1-0.2-0.1-0.5-0.2-0.7c-0.1-0.3-0.4-0.6-0.5-0.9c-0.1-0.2-0.2-1.9-0.1-3.1c0-1.2,0-2.3,0.1-2.9c0.1-0.5,0.4-1,0.5-1.5
		c0.1-0.5,0.8-2.2,0.9-3c0.2-0.8,0.6-2.3,0.8-2.8c0.2-0.5,0.8-1.9,1-2.4c0.3-0.4,1.3-2,1.7-2.5c0.4-0.5,2.3-2.4,2.8-2.8
		c0.4-0.3,1.5-1.1,1.8-1.3c0.2-0.1,1.5-1.1,2-1.3c0.3-0.2,0.8-0.2,0.8-0.2l0.4-0.5c0,0,0.2-0.3,0.5-0.4c0.2-0.2,0.8-0.2,0.8-0.2
		s0.7-0.5,1.4-0.4c0.3,0.1,0.5-0.5,0.8-0.6c0.3-0.1,1.3-0.2,1.4-0.1c0.1,0.1,0.3,0.3,0.9,0.4c0.6,0.1,1,0,1.2,0
		c0.3,0.1,0.6,0.4,0.8,0.5c0.2,0.1,2.7,2.4,3.1,3c0.1,0.2,0.2,0.6,0.2,0.7c0.1,0.2,0.5,0.5,0.7,1.1c0.1,0.5,0.6,0.7,0.7,1.4
		c0,0.4,0.8,0.8,1.1,1.7c0.1,0.2,0.2,1.1,0.2,1.2c0.1,0.1,0.3,0.2,0.4,0.5c0.1,0.3,0.2,0.8,0.1,1.1c0,0.4,0.7,1.8,0.6,2.7
		c-0.1,0.9-0.2,1.8-0.4,2.5c-0.2,0.7-0.1,1.9-0.2,2.4c-0.1,0.5-0.5,1.8-0.6,2.1c-0.1,0.4-1.1,3-1.3,3.3c-0.2,0.3-0.8,1.5-1.1,1.8
		c-0.3,0.3-2.4,3.3-2.8,3.7c-0.4,0.4-1.3,1.1-1.5,1.4c-0.3,0.4-0.5,0.8-0.7,1.3c-0.4,0.7-1,0.2-1.3,0.7c-0.4,0.7-1.1,0.8-1.2,1.2
		c-0.2,0.6-0.7,1.1-0.9,1.3C109.3,36.4,108.2,36.8,107.6,36.8"/>
	<path class="st0" d="M45.5,127.8c0,0-9.1,3.1-12.7,4.4c-3.4,1.2-7.2,2.6-9.8,3.6c-3.1,1.3-8.5,3.5-9.8,3.9c-2,0.7-2.9,0.3-3.4-0.9
		c-0.6-1.2-1.9-3.7-2.6-6.7c-0.7-3-1-5.4-1-6.3c0-0.9,0.7-2.5,1.8-3.1c1.1-0.6,3.8-2.2,5.9-3.4c4.1-2.3,18-9.8,26.3-14.1
		c8.8-4.6,22.7-11.3,30.2-15c7.5-3.7,19.7-9.5,21.2-10.1c1.5-0.6,3-1.4,3.8-1.4s0.5,0.4,0.5,0.6c0,0.3-0.3,0.4-0.3,0.9
		c-0.1,0.6,0,1.2-0.2,1.7c-0.2,0.5-0.7,1.1-0.8,1.4c-0.1,0.4-0.2,1.7-0.5,2.1c-0.4,0.5-1.7,3-2,4.2c-0.3,1.2-0.9,3.2-1.2,3.6
		c-0.3,0.5-1.2,2.2-1.2,2.7c-0.1,0.6-0.7,1.9-0.9,2.4c-0.2,0.6-1.3,2.6-1.5,3c-0.2,0.4-0.9,2.8-1.1,3.2c-0.2,0.4-0.9,1.5-0.9,1.5
		l-0.4,1.6c0,0-1,1.5-1,1.8c0,0.3-0.7,2.8-1.1,3.3c-0.4,0.5-2.1,4.5-2.5,5.9c-0.4,1.4-1,3.4-1.2,3.9c-0.2,0.5-1.2,2.1-1.4,2.7
		c-0.2,0.6-1,3.3-1.3,3.9c-0.3,0.6-1,2.1-1,2.7c0,0.6-0.6,1.8-1,2.8c-0.5,1-1,2.8-1.3,3.4c-0.3,0.6-0.6,1.1-0.7,1.5
		c-0.1,0.4-0.2,1.4-0.3,1.7c-0.1,0.3-0.3,0.7-0.3,0.7c-0.5,0.2-25.3,10.9-28.8,12.5c-3.5,1.7-28.7,13.6-30.2,14.3
		c-1.6,0.7-3.7,2.3-5.2,1.3c-2-1.4-3.9-4.2-5.2-6.7c-1.1-2.1-2.2-5.6-2.4-8.1c-0.2-3.2,1.1-3.8,5.8-6.5C8.1,147.5,26.2,138,32,135
		C33.6,134.1,45.5,127.8,45.5,127.8"/>
</g>
</svg>
