<svg xmlns="http://www.w3.org/2000/svg" width="156.42" height="50.06" viewBox="0 0 156.42 50.06"><defs><style>.cls-1{fill:#5bc5f2;}</style></defs><title>myclimate-logo</title><g id="Ebene_2" data-name="Ebene 2"><g id="Ebene_1-2" data-name="Ebene 1"><path d="M65.33,42.54a2.42,2.42,0,0,0-1.82-.83c-.72,0-1.29.32-1.29.9s.5.78,1.47,1l.76.15c1,.22,1.88.66,1.88,1.8,0,1.33-1.17,2.07-2.73,2.07a3.61,3.61,0,0,1-2.8-1.29l.74-.77a2.68,2.68,0,0,0,2.13,1.11c.89,0,1.49-.37,1.49-1s-.48-.75-1.14-.88l-.89-.18c-1.13-.21-2.06-.67-2.06-1.82,0-1.4,1.29-2,2.5-2a3.29,3.29,0,0,1,2.5,1Z"/><path d="M73.21,47.45H72.07v-3.8c0-1.41-.52-1.88-1.48-1.88a1.75,1.75,0,0,0-1.73,1.91v3.77H67.72V38.12h1.14v3.77A2.28,2.28,0,0,1,71,40.77a2.08,2.08,0,0,1,1.84.83,3.23,3.23,0,0,1,.41,1.76Z"/><path d="M80.67,47.55a3.17,3.17,0,0,1-.65.06c-.79,0-1-.35-1.1-.88h0a2.23,2.23,0,0,1-2,.9,2,2,0,0,1-2.22-2,1.66,1.66,0,0,1,.83-1.53,5.87,5.87,0,0,1,1.91-.56l.9-.15c.41-.07.55-.13.55-.4v-.14c0-.68-.22-1.18-1.39-1.18s-1.54.61-1.54,1.39L74.83,43c0-1.47,1.22-2.18,2.69-2.18S80,41.21,80,42.84v3.32c0,.46.17.59.57.59h.15Zm-1.81-3.42a4.07,4.07,0,0,1-.76.19l-.63.14a3.55,3.55,0,0,0-1.28.43.8.8,0,0,0-.34.71c0,.74.57,1.14,1.38,1.14s1.63-.4,1.63-1.41Z"/><path d="M83.09,46.49v3.57H82V40.92h1.14v1a2.32,2.32,0,0,1,2.1-1.11c1.63,0,2.88,1.23,2.88,3.43s-1.18,3.42-2.84,3.42A2.34,2.34,0,0,1,83.09,46.49Zm1.92.17c1.18,0,1.89-.92,1.89-2.49S86.13,41.7,85,41.7s-2,.82-2,2.47S83.87,46.66,85,46.66Z"/><path d="M95.25,46.11a3.31,3.31,0,0,1-2.88,1.51c-1.87,0-3.12-1.28-3.12-3.46a3.13,3.13,0,0,1,3.11-3.39c2,0,2.94,1.48,2.94,3.43v.25H90.41a2,2,0,0,0,2.07,2.18,2.22,2.22,0,0,0,2-1.11Zm-4.8-2.57h3.66c-.09-1.15-.72-1.85-1.75-1.85A1.91,1.91,0,0,0,90.45,43.54Z"/><path d="M102.74,40.77c1.84,0,3.12,1.34,3.12,3.44s-1.25,3.41-3.12,3.41-3.12-1.32-3.12-3.41S100.9,40.77,102.74,40.77Zm0,5.9c1.15,0,2-.92,2-2.47s-.77-2.5-2-2.5-1.95.93-1.95,2.5S101.59,46.67,102.74,46.67Z"/><path d="M107.31,40.92h1.14v3.76a2.91,2.91,0,0,0,.22,1.32,1.27,1.27,0,0,0,1.27.62,1.72,1.72,0,0,0,1.66-1.95V40.92h1.14v6.53H111.6v-1a2.21,2.21,0,0,1-2.09,1.13,2.1,2.1,0,0,1-1.63-.62c-.41-.47-.57-.93-.57-2.36Z"/><path d="M118.08,41.88a2.12,2.12,0,0,0-.42,0,2,2,0,0,0-1.93,2.2v3.41h-1.14V40.92h1.14v1.23a2.06,2.06,0,0,1,2-1.4,1.44,1.44,0,0,1,.37,0Z"/><path d="M125.76,41.78h-1.39v5.67h-1.14V41.78H121.9v-.86h1.33V39.6c0-1,.5-1.58,1.66-1.58a5.15,5.15,0,0,1,.87.08V39c-.11,0-.33,0-.54,0-.38,0-.59.07-.71.25a1.13,1.13,0,0,0-.14.67v1h1.39Z"/><path d="M126.94,40.92h1.14v3.76A2.91,2.91,0,0,0,128.3,46a1.25,1.25,0,0,0,1.26.62,1.72,1.72,0,0,0,1.66-1.95V40.92h1.14v6.53h-1.14v-1a2.18,2.18,0,0,1-2.08,1.13A2.12,2.12,0,0,1,127.5,47c-.41-.47-.56-.93-.56-2.36Z"/><path d="M133.55,40.92h1.26V38.56l1.14-.25v2.61h1.44v.86H136v4a1.16,1.16,0,0,0,.1.62c.08.15.23.22.59.22a4.21,4.21,0,0,0,.75-.08v.89a4.8,4.8,0,0,1-1.14.14c-.62,0-1.15-.14-1.36-.69a2,2,0,0,1-.08-.63V41.78h-1.26Z"/><path d="M138.61,40.92h1.14v3.76A2.91,2.91,0,0,0,140,46a1.27,1.27,0,0,0,1.27.62,1.72,1.72,0,0,0,1.66-1.95V40.92H144v6.53H142.9v-1a2.21,2.21,0,0,1-2.09,1.13,2.1,2.1,0,0,1-1.63-.62c-.41-.47-.57-.93-.57-2.36Z"/><path d="M149.38,41.88a2.12,2.12,0,0,0-.42,0A2,2,0,0,0,147,44v3.41h-1.14V40.92H147v1.23a2.06,2.06,0,0,1,2-1.4,1.38,1.38,0,0,1,.37,0Z"/><path d="M156.17,46.11a3.35,3.35,0,0,1-2.89,1.51c-1.87,0-3.12-1.28-3.12-3.46a3.13,3.13,0,0,1,3.11-3.39c2,0,2.94,1.48,2.94,3.43v.25h-4.89a2,2,0,0,0,2.07,2.18,2.22,2.22,0,0,0,2-1.11Zm-4.81-2.57H155c-.1-1.15-.73-1.85-1.76-1.85A1.91,1.91,0,0,0,151.36,43.54Z"/><path class="cls-1" d="M42.36,12.74l1.78-.67c2.93-1.08,7.25-.4,9.44,1.72a4.71,4.71,0,0,1,1.21,2h4a8.61,8.61,0,0,0-2.51-4.92A13.31,13.31,0,0,0,44.55,7.82C42,2.58,37.57,0,32.48,0c-5.41,0-10,3-12.62,8.92-7,.86-11.45,6.14-12.1,13.57A9.37,9.37,0,0,0,0,31.8c.25,10,9.27,10,12.23,10H17v-4H12.23c-6.8,0-8.23-2.33-8.32-6.1,0-2.62,1.79-5.37,5.78-5.5l1.87-.06,0-1.92c0-4.75,1.76-11,9.71-11.49l1.27-.07L23,11.49C23.9,9.08,26.61,4,32.48,4c5.68,0,8.31,4.7,9.18,6.94Z"/><path d="M20.22,19.1H36.59c2.3,0,3.57.61,4.38,2.11.51,1,.59,1.53.59,4.37v9.07h-4.4V22.86H33.08V34.65h-4.4V22.86H24.63V34.65H20.22Z"/><path d="M65.84,34.65c-4.32,0-5.61-1.49-5.61-6.5,0-3.64.16-5.38.62-6.57.73-1.84,2-2.48,5.05-2.48h6v3.76H65v8h6.91v3.75Z"/><rect x="74.69" y="14.27" width="4.4" height="20.38"/><path d="M82.31,19.1h4.4V34.65h-4.4Zm0-4.83h4.4v3.06h-4.4Z"/><path d="M89.93,19.1H106.3c2.3,0,3.57.61,4.38,2.11.51,1,.59,1.53.59,4.37v9.07h-4.4V22.86h-4.08V34.65h-4.4V22.86H94.33V34.65h-4.4Z"/><path d="M123.41,31.29h-5.68V28.2h5.68Zm3.3-10.69c-.84-1.16-1.87-1.5-4.41-1.5h-7.81v3.76h8.92v2.29h-4.86c-1.89,0-2.86.28-3.67,1a4.71,4.71,0,0,0-1.3,3.57,4.91,4.91,0,0,0,1.73,4.13,6.93,6.93,0,0,0,3.75.79h8.48v-9.9c0-2.35-.18-3.3-.83-4.15"/><path d="M136.8,34.65c-2.27,0-3.51-.61-4.21-2.11-.54-1.13-.62-1.86-.62-5.19V22.86h-2.19V19.1H132V14.79h4.4V19.1h4.08v3.76h-4.08v8h4.08v3.75Z"/><path d="M54.44,19.49,50.9,30.83,47.23,19.49H42.94l6,16.37s-.46,1.77-1.91,2a23.1,23.1,0,0,1-4,.16v3.76h2.78c2.17,0,3.76-.36,4.95-1.38,1.45-1.23,2.39-3.91,3.36-7.12l4.26-13.82Z"/><path d="M152.68,25.42H147V22.33h5.68Zm3.74.56c0-3.33-.16-4.31-1-5.32-1-1.25-2.31-1.68-5.38-1.68-3.32,0-4.66.24-5.72,1.07-1.36,1-1.76,2.47-1.76,6.48a17,17,0,0,0,.48,5.22,3.87,3.87,0,0,0,2.45,2.6,10,10,0,0,0,3.36.3h7.32V31H147V28.59h9.42Z"/></g></g></svg>