<svg width="149.38mm" height="41.311mm" version="1.1" viewBox="0 0 149.38 41.311" xmlns="http://www.w3.org/2000/svg">
 <g transform="translate(-31.902 -88.868)">
  <g transform="matrix(.26458 0 0 .26458 27.58 -1.9981)">
   <g fill="#83af41">
    <path class="st3" d="m202.3 414.6c5.8 0 8.7-2 8.7-6 0-1.2-0.3-2.3-0.8-3.1-0.5-0.9-1.2-1.6-2.1-2.2-0.9-0.7-1.9-1.2-3-1.7s-2.3-0.9-3.6-1.4c-1.5-0.5-2.8-1.1-4.1-1.7-1.3-0.7-2.4-1.4-3.4-2.2-1-0.9-1.7-1.9-2.3-3.1-0.5-1.2-0.8-2.6-0.8-4.3 0-3.5 1.2-6.2 3.6-8.1 2.4-2 5.6-2.9 9.8-2.9 2.4 0 4.6 0.3 6.5 0.8 2 0.5 3.4 1.1 4.4 1.7l-1.8 4.5c-0.8-0.5-2-1-3.6-1.4-1.6-0.5-3.4-0.7-5.5-0.7-1.1 0-2.1 0.1-3 0.3s-1.7 0.6-2.4 1c-0.7 0.5-1.2 1.1-1.7 1.8-0.4 0.7-0.6 1.5-0.6 2.5 0 1.1 0.2 2 0.6 2.7s1 1.4 1.8 2c0.8 0.5 1.6 1 2.6 1.5s2.2 0.9 3.4 1.4c1.7 0.7 3.3 1.4 4.7 2.1 1.5 0.7 2.7 1.5 3.7 2.5 1.1 1 1.9 2.1 2.5 3.4s0.9 2.9 0.9 4.8c0 3.5-1.3 6.2-3.8 8-2.5 1.9-6.1 2.8-10.7 2.8-1.6 0-3-0.1-4.4-0.3-1.3-0.2-2.5-0.4-3.5-0.7s-1.9-0.6-2.7-0.9c-0.7-0.3-1.3-0.6-1.7-0.9l1.7-4.6c0.9 0.5 2.2 1.1 4 1.7 1.8 0.4 4 0.7 6.6 0.7"/>
    <path class="st3" d="m247.2 417.7c-1.2 0.3-2.8 0.6-4.9 1-2 0.3-4.3 0.5-6.9 0.5-2.3 0-4.2-0.3-5.8-1s-2.8-1.6-3.8-2.9c-1-1.2-1.6-2.7-2.1-4.3-0.4-1.7-0.6-3.5-0.6-5.6v-16.7h5.3v15.6c0 3.6 0.6 6.2 1.7 7.8s3.1 2.4 5.8 2.4c0.6 0 1.2 0 1.8-0.1 0.6 0 1.2-0.1 1.7-0.1 0.5-0.1 1-0.1 1.4-0.2 0.5-0.1 0.8-0.2 1-0.2v-25.2h5.3l0.1 29"/>
    <path class="st3" d="m263.5 414.7c2.2 0 3.8-0.3 4.8-0.9 1.1-0.6 1.6-1.5 1.6-2.8s-0.5-2.3-1.5-3.1-2.7-1.6-5.1-2.6c-1.1-0.5-2.3-0.9-3.3-1.4s-1.9-1.1-2.7-1.7c-0.8-0.7-1.4-1.4-1.8-2.4-0.5-0.9-0.7-2-0.7-3.4 0-2.6 1-4.7 2.9-6.3 2-1.6 4.6-2.4 8-2.4 0.8 0 1.7 0.1 2.5 0.2l2.4 0.3c0.7 0.1 1.4 0.2 1.9 0.4 0.6 0.2 1 0.3 1.3 0.4l-1 4.6c-0.6-0.3-1.5-0.6-2.7-0.9s-2.7-0.5-4.4-0.5c-1.5 0-2.8 0.3-3.9 0.9s-1.7 1.5-1.7 2.8c0 0.7 0.1 1.2 0.3 1.7 0.3 0.5 0.7 1 1.1 1.4 0.5 0.4 1.2 0.7 2 1.1 0.8 0.3 1.7 0.7 2.8 1.1 1.4 0.5 2.7 1.1 3.8 1.6s2 1.1 2.8 1.8 1.4 1.5 1.8 2.5 0.6 2.1 0.6 3.6c0 2.8-1 4.8-3.1 6.3-2 1.4-4.9 2.1-8.7 2.1-2.6 0-4.7-0.2-6.2-0.7-1.5-0.4-2.5-0.7-3-1l1-4.6c0.6 0.2 1.6 0.6 2.9 1 1.3 0.7 3.1 0.9 5.3 0.9"/>
    <path class="st3" d="m287.3 388.7h11.3v4.5h-11.3v13.8c0 1.5 0.1 2.7 0.3 3.7s0.6 1.7 1 2.3c0.5 0.5 1 0.9 1.7 1.1s1.5 0.3 2.4 0.3c1.6 0 2.9-0.2 3.8-0.5 1-0.4 1.7-0.7 2.1-0.8l1 4.4c-0.5 0.3-1.5 0.6-2.8 1s-2.9 0.6-4.6 0.6c-2 0-3.7-0.2-5-0.7s-2.4-1.3-3.2-2.4c-0.8-1-1.4-2.3-1.7-3.8s-0.5-3.3-0.5-5.3v-26.6l5.3-0.9v9.3"/>
    <path class="st3" d="m315.7 414.7c1.3 0 2.4 0 3.3-0.1 1-0.1 1.8-0.2 2.5-0.3v-8.9c-0.4-0.2-1-0.3-1.9-0.5-0.8-0.2-1.9-0.2-3.1-0.2-0.8 0-1.7 0.1-2.6 0.2s-1.7 0.4-2.5 0.7c-0.7 0.3-1.3 0.8-1.8 1.5-0.5 0.6-0.7 1.4-0.7 2.5 0 1.9 0.6 3.3 1.8 4 1.3 0.8 2.9 1.1 5 1.1m-0.4-26.7c2.1 0 3.9 0.3 5.4 0.9 1.5 0.5 2.7 1.3 3.6 2.4 0.9 1 1.6 2.2 2 3.6s0.6 2.9 0.6 4.6v18.6c-0.5 0.1-1.1 0.2-2 0.3-0.8 0.1-1.7 0.2-2.8 0.3-1 0.1-2.2 0.2-3.4 0.3s-2.4 0.2-3.6 0.2c-1.7 0-3.2-0.2-4.6-0.5s-2.6-0.9-3.7-1.6c-1-0.8-1.8-1.8-2.4-3s-0.9-2.7-0.9-4.4c0-1.6 0.3-3.1 1-4.2 0.7-1.2 1.6-2.1 2.8-2.9 1.1-0.7 2.5-1.3 4-1.6s3.1-0.5 4.8-0.5c0.5 0 1.1 0 1.7 0.1 0.6 0 1.1 0.1 1.6 0.2s1 0.2 1.4 0.2c0.4 0.1 0.7 0.1 0.8 0.2v-1.5c0-0.9-0.1-1.7-0.3-2.6s-0.5-1.6-1-2.3-1.2-1.2-2.1-1.6c-0.8-0.4-2-0.6-3.3-0.6-1.8 0-3.3 0.1-4.6 0.4-1.3 0.2-2.3 0.5-2.9 0.7l-0.6-4.4c0.7-0.3 1.8-0.6 3.4-0.9 1.5-0.3 3.2-0.4 5.1-0.4"/>
    <path class="st3" d="m341.1 418.6h-5.3v-29.8h5.3v29.8m-2.7-35.3c-1 0-1.8-0.3-2.5-0.9-0.7-0.7-1-1.5-1-2.6s0.3-1.9 1-2.5 1.5-1 2.5-1 1.8 0.3 2.4 1c0.7 0.6 1 1.5 1 2.5s-0.3 1.9-1 2.6c-0.6 0.6-1.4 0.9-2.4 0.9"/>
    <path class="st3" d="m350.6 389.6c1.2-0.3 2.8-0.6 4.9-1 2-0.3 4.4-0.5 7-0.5 2.4 0 4.3 0.3 5.9 1s2.8 1.6 3.7 2.8c1 1.2 1.6 2.6 2 4.3s0.6 3.5 0.6 5.6v16.8h-5.3v-15.6c0-1.8-0.1-3.4-0.4-4.7-0.2-1.3-0.6-2.4-1.2-3.2s-1.3-1.4-2.3-1.7c-1-0.4-2.1-0.6-3.6-0.6-0.6 0-1.2 0-1.8 0.1-0.6 0-1.2 0.1-1.8 0.2-0.5 0-1 0.1-1.5 0.2-0.4 0.1-0.7 0.1-0.9 0.2v25.2h-5.3v-29.1"/>
    <path class="st3" d="m408.8 374.1c1.6 0 2.9 0.1 4 0.3s2 0.4 2.4 0.6l-1 4.6c-0.5-0.2-1.1-0.4-2-0.6-0.8-0.2-1.9-0.3-3.1-0.3-2.5 0-4.2 0.7-5.2 2.1-1 1.3-1.5 3.2-1.5 5.4v2.6h11.6v4.5h-11.5v25.4h-5.3v-32.7c0-3.8 0.9-6.8 2.8-8.8 1.9-2.1 4.8-3.1 8.8-3.1"/>
    <path class="st3" d="m445.9 403.7c0 2.4-0.3 4.5-1 6.4s-1.7 3.6-2.9 4.9c-1.2 1.4-2.7 2.4-4.4 3.2-1.7 0.7-3.6 1.1-5.6 1.1s-3.9-0.4-5.6-1.1c-1.7-0.8-3.2-1.8-4.5-3.2-1.2-1.4-2.2-3-2.9-4.9s-1-4.1-1-6.4 0.3-4.5 1-6.4c0.7-2 1.6-3.6 2.9-5s2.8-2.4 4.5-3.2 3.6-1.1 5.6-1.1 3.9 0.4 5.6 1.1 3.2 1.8 4.4 3.2c1.3 1.4 2.2 3 2.9 5 0.7 1.9 1 4 1 6.4m-5.6 0c0-3.4-0.8-6-2.3-8s-3.5-3-6.1-3-4.7 1-6.2 3-2.2 4.6-2.2 8 0.7 6 2.2 8 3.6 2.9 6.2 2.9 4.6-1 6.1-2.9c1.6-2 2.3-4.7 2.3-8"/>
    <path class="st3" d="m464.7 388.1c0.5 0 1 0 1.5 0.1 0.6 0 1.2 0.1 1.8 0.2s1.1 0.2 1.5 0.3c0.5 0.1 0.9 0.2 1.1 0.2l-0.9 4.6c-0.4-0.2-1.1-0.3-2.1-0.5s-2.2-0.3-3.7-0.3c-1 0-2 0.1-3 0.3s-1.6 0.3-1.9 0.4v25.1h-5.3v-28.5c1.3-0.5 2.8-0.9 4.7-1.3 1.8-0.4 3.9-0.6 6.3-0.6"/>
    <path class="st3" d="m513.8 413.7v4.8h-23.9v-39.8h5.6v34.9h18.3"/>
    <path class="st3" d="m524.9 418.6h-5.3v-29.8h5.3v29.8m-2.7-35.3c-1 0-1.8-0.3-2.5-0.9-0.6-0.7-1-1.5-1-2.6s0.3-1.9 1-2.5 1.5-1 2.5-1 1.8 0.3 2.4 1c0.7 0.6 1 1.5 1 2.5s-0.3 1.9-1 2.6c-0.7 0.6-1.5 0.9-2.4 0.9"/>
    <path class="st3" d="m545.9 374.1c1.6 0 2.9 0.1 4 0.3s2 0.4 2.4 0.6l-1 4.6c-0.5-0.2-1.1-0.4-2-0.6-0.8-0.2-1.9-0.3-3.1-0.3-2.5 0-4.2 0.7-5.2 2.1-1 1.3-1.5 3.2-1.5 5.4v2.6h11.5v4.5h-11.5v25.4h-5.3v-32.7c0-3.8 0.9-6.8 2.8-8.8 2-2.1 4.9-3.1 8.9-3.1"/>
    <path class="st3" d="m555 403.7c0-2.6 0.4-4.9 1.1-6.9 0.8-2 1.8-3.6 3-4.9 1.3-1.3 2.7-2.3 4.4-2.9 1.6-0.7 3.3-1 5-1 4 0 7.1 1.3 9.2 3.8s3.2 6.3 3.2 11.4v0.9c0 0.3 0 0.7-0.1 1h-20.4c0.2 3.1 1.1 5.4 2.7 7.1 1.6 1.6 4 2.4 7.3 2.4 1.9 0 3.4-0.2 4.7-0.5s2.3-0.7 2.9-1l0.7 4.5c-0.7 0.3-1.8 0.7-3.4 1.1s-3.4 0.6-5.5 0.6c-2.6 0-4.9-0.4-6.8-1.1-1.9-0.8-3.4-1.9-4.6-3.3s-2.1-3-2.8-4.9c-0.3-1.9-0.6-4-0.6-6.3m20.5-2.9c0-2.4-0.6-4.4-1.8-5.9-1.2-1.6-2.9-2.4-5.1-2.4-1.2 0-2.3 0.2-3.3 0.7-0.9 0.5-1.7 1.1-2.4 1.8-0.7 0.8-1.2 1.6-1.5 2.6s-0.6 2-0.7 3h14.8"/>
   </g>
   <path class="st4" d="m58.9 420.1c1.5-2.7 2.7-5 4.3-7.7-5.7-3.1-11.3-6.3-15.1-11.8-2.7-3.6-2-9.2 1.7-12 4.9-3.7 11.3-4.3 17.2-4.3 0.2 0.2 0.8-0.8 0.8-0.8-7.9-0.9-16.5 0.8-22.5 5.2-4.7 3.3-6.3 9.8-4.2 15.1 3.2 7.9 11.1 11.8 17.8 16.3z" fill="#495b82"/>
   <path class="st4" d="m101.7 387.3c-0.2 0.3-0.6 0.5-0.8 0.8 7.2 1.7 14.4 3.9 21.1 7.2 4.5 2.5 9.2 5.3 12.2 9.7 2.1 2.5 3.7 5.8 2.8 9.1-1.9 10.4-15.1 10.5-21.9 10.1-8.4-0.1-16.8-1.2-25-3.4-3.6-1-7.1-2.3-10.6-3.3l-4.3 9c5.7 2.5 11.4 5.2 17.5 6.5 10.8 2.6 21.9 3.6 33 3.7 10-0.1 20.5-1.9 24.4-9.6 2.1-3.9 2.3-8.8-0.1-12.6-3.9-8-17-15.5-26.4-19.6-7.2-3.1-14.5-5.7-21.9-7.6z" fill="#495b82"/>
   <path class="st3" d="m133.2 399.2s0-0.1 0.3-0.7c2.4-5.4 3-9.2 3.6-15 0.6-5-1.4-10.2-5.5-13.2-5.9-4.8-14.3-5.2-21.2-2.4-9.9 4-18 11.2-25.8 18.3-10.4 9.9-19 21.7-25.5 34.6-4.6 8.6-7.9 17.9-9.5 27.6-1.1 7-0.5 15.2 5 20.3 5.2 4.8 13 6 19.6 3.5 9.8-3.6 17.3-11.2 24.9-18.1 5.3-5.3 9.9-10.9 14-17.1 0 0-1.1-0.1-1.1-0.2-5.1 7.5-12.6 14.2-19.9 19.5-4.6 3-10.8 5.6-16 2.5-5.7-4-7-11.7-6.5-18.2 0.9-8.4 5-16 8.7-23.4 6-11.7 13.8-22.6 23.8-31.2 5.6-5 11.7-10.8 19.6-11.6 6.2-0.6 13.5 3.8 13.6 10.5-0.1 4.5-1 9-2.6 13.3-0.3 0.7 0.1-0.2-0.2 0.6" fill="#83af41"/>
   <path class="st5" d="m170.4 421.5c0 42-34 76-76 76s-76-34-76-76 34-76 76-76c42 0.1 76 34.1 76 76z" fill="none" stroke="#443639" stroke-width="4.1356"/>
   <g fill="#5c474a">
    <path class="st6" d="m195.2 440.2c-1.8 0-3.2-0.5-4.3-1.5-1-1-1.5-2.5-1.5-4.4s0.5-3.4 1.5-4.5 2.3-1.7 3.8-1.7c0.7 0 1.3 0.1 1.9 0.3s1 0.5 1.4 1 0.7 1 0.9 1.6 0.3 1.4 0.3 2.3v1h-7.9c0 1.3 0.3 2.4 1 3.1s1.6 1.1 2.8 1.1c0.4 0 0.8 0 1.2-0.1s0.8-0.2 1.1-0.4 0.6-0.3 0.9-0.5c0.2-0.1 0.4-0.3 0.6-0.4h0.1v2.1c-0.2 0.1-0.5 0.2-0.8 0.3s-0.6 0.2-0.9 0.3c-0.4 0.1-0.7 0.2-1 0.2-0.3 0.1-0.7 0.2-1.1 0.2zm2.2-7.3c0-0.5-0.1-1-0.2-1.3s-0.3-0.7-0.5-1-0.5-0.5-0.9-0.7c-0.4-0.1-0.8-0.2-1.3-0.2s-0.9 0.1-1.3 0.2c-0.4 0.2-0.7 0.4-1 0.7s-0.5 0.6-0.7 1-0.2 0.8-0.3 1.3z"/>
    <path class="st6" d="m210.7 428.5-4.3 11.5h-1.7l-4.3-11.5h2.1l3.1 8.8 3.1-8.8z"/>
    <path class="st6" d="m217.3 440.2c-1.8 0-3.2-0.5-4.3-1.5-1-1-1.5-2.5-1.5-4.4s0.5-3.4 1.5-4.5 2.3-1.7 3.8-1.7c0.7 0 1.3 0.1 1.9 0.3s1 0.5 1.4 1 0.7 1 0.9 1.6 0.3 1.4 0.3 2.3v1h-7.9c0 1.3 0.3 2.4 1 3.1s1.6 1.1 2.8 1.1c0.4 0 0.8 0 1.2-0.1s0.8-0.2 1.1-0.4 0.6-0.3 0.9-0.5c0.2-0.1 0.4-0.3 0.6-0.4h0.1v2.1c-0.2 0.1-0.5 0.2-0.8 0.3s-0.6 0.2-0.9 0.3c-0.4 0.1-0.7 0.2-1 0.2-0.2 0.1-0.6 0.2-1.1 0.2zm2.3-7.3c0-0.5-0.1-1-0.2-1.3s-0.3-0.7-0.5-1-0.5-0.5-0.9-0.7c-0.4-0.1-0.8-0.2-1.3-0.2s-0.9 0.1-1.3 0.2c-0.4 0.2-0.7 0.4-1 0.7s-0.5 0.6-0.7 1-0.2 0.8-0.3 1.3z"/>
    <path class="st6" d="m229.9 430.5h-0.1c-0.1 0-0.3-0.1-0.5-0.1h-0.6c-0.5 0-1 0.1-1.5 0.3s-1 0.6-1.5 1v8.1h-1.9v-11.5h1.9v1.7c0.7-0.6 1.3-1.1 1.8-1.3 0.5-0.3 1-0.4 1.5-0.4h0.4 0.3v2.2z"/>
    <path class="st6" d="m240.8 428.5-6.2 15.7h-2.1l2.1-4.8-4.2-10.9h2.1l3.1 8.5 3.1-8.5z"/>
    <path class="st6" d="m259.2 433.9c0 1.9-0.5 3.4-1.4 4.6-0.9 1.1-2.1 1.7-3.5 1.7-0.6 0-1.1-0.1-1.5-0.2s-0.9-0.3-1.3-0.6v4.8h-1.9v-15.7h1.9v1.2c0.5-0.4 1-0.8 1.6-1.1s1.2-0.4 1.9-0.4c1.3 0 2.3 0.5 3.1 1.6 0.7 0.9 1.1 2.3 1.1 4.1zm-2 0.2c0-1.3-0.2-2.3-0.6-3s-1.1-1.1-2-1.1c-0.5 0-1.1 0.1-1.6 0.4-0.5 0.2-1 0.6-1.5 0.9v6.5c0.5 0.2 0.9 0.4 1.3 0.5s0.8 0.1 1.2 0.1c1 0 1.8-0.4 2.3-1.1s0.9-1.8 0.9-3.2z"/>
    <path class="st6" d="m266.6 440.2c-1.8 0-3.2-0.5-4.3-1.5-1-1-1.5-2.5-1.5-4.4s0.5-3.4 1.5-4.5 2.3-1.7 3.8-1.7c0.7 0 1.3 0.1 1.9 0.3s1 0.5 1.4 1 0.7 1 0.9 1.6 0.3 1.4 0.3 2.3v1h-7.9c0 1.3 0.3 2.4 1 3.1s1.6 1.1 2.8 1.1c0.4 0 0.8 0 1.2-0.1s0.8-0.2 1.1-0.4 0.6-0.3 0.9-0.5c0.2-0.1 0.4-0.3 0.6-0.4h0.1v2.1c-0.2 0.1-0.5 0.2-0.8 0.3s-0.6 0.2-0.9 0.3c-0.4 0.1-0.7 0.2-1 0.2-0.3 0.1-0.7 0.2-1.1 0.2zm2.2-7.3c0-0.5-0.1-1-0.2-1.3s-0.3-0.7-0.5-1-0.5-0.5-0.9-0.7c-0.4-0.1-0.8-0.2-1.3-0.2s-0.9 0.1-1.3 0.2c-0.4 0.2-0.7 0.4-1 0.7s-0.5 0.6-0.7 1-0.2 0.8-0.3 1.3z"/>
    <path class="st6" d="m282 439.9h-1.9v-6.5c0-0.5 0-1-0.1-1.5s-0.1-0.8-0.3-1.1-0.4-0.5-0.7-0.6-0.7-0.2-1.1-0.2c-0.5 0-1 0.1-1.5 0.4s-1 0.6-1.5 1v8.6h-1.9v-11.5h1.9v1.3c0.6-0.5 1.1-0.9 1.7-1.2s1.2-0.4 1.8-0.4c1.1 0 2 0.4 2.6 1.1s1 1.8 1 3.2z"/>
    <path class="st6" d="m294.2 439.9h-1.9v-6.5c0-0.5 0-1-0.1-1.5s-0.1-0.8-0.3-1.1-0.4-0.5-0.7-0.6-0.7-0.2-1.1-0.2c-0.5 0-1 0.1-1.5 0.4s-1 0.6-1.5 1v8.6h-1.9v-11.5h1.9v1.3c0.6-0.5 1.1-0.9 1.7-1.2s1.2-0.4 1.8-0.4c1.1 0 2 0.4 2.6 1.1s1 1.8 1 3.2z"/>
    <path class="st6" d="m306.1 428.5-6.2 15.7h-2.1l2.1-4.8-4.2-10.9h2.1l3.1 8.5 3.1-8.5z"/>
    <path class="st6" d="m319.4 440.2c-0.8 0-1.5-0.1-2.2-0.4-0.7-0.2-1.2-0.6-1.7-1.1s-0.8-1.1-1.1-1.9c-0.3-0.7-0.4-1.6-0.4-2.6s0.1-1.9 0.4-2.6 0.6-1.3 1.1-1.8 1-0.9 1.7-1.2 1.4-0.4 2.2-0.4c0.6 0 1.2 0.1 1.8 0.3s1.1 0.4 1.6 0.6v2.2h-0.1c-0.1-0.1-0.3-0.2-0.5-0.4s-0.5-0.3-0.8-0.5c-0.3-0.1-0.6-0.3-0.9-0.4-0.4-0.1-0.7-0.2-1-0.2-1 0-1.8 0.4-2.4 1.1-0.6 0.8-0.9 1.8-0.9 3.2s0.3 2.4 0.9 3.2 1.4 1.1 2.4 1.1c0.6 0 1.2-0.1 1.8-0.4s1.1-0.6 1.5-1h0.1v2.2c-0.2 0.1-0.4 0.2-0.7 0.3s-0.5 0.2-0.8 0.3-0.6 0.2-0.9 0.2c-0.3 0.1-0.6 0.2-1.1 0.2z"/>
    <path class="st6" d="m334.4 434.2c0 1.9-0.5 3.4-1.4 4.5-0.9 1-2.2 1.6-3.7 1.6-1.6 0-2.8-0.5-3.8-1.6-0.9-1.1-1.4-2.6-1.4-4.4 0-1.9 0.5-3.4 1.4-4.5s2.2-1.6 3.7-1.6 2.8 0.5 3.7 1.6c1 1 1.5 2.5 1.5 4.4zm-2 0c0-1.5-0.3-2.6-0.8-3.3s-1.3-1.1-2.3-1.1-1.8 0.4-2.3 1.1-0.8 1.8-0.8 3.3c0 1.4 0.3 2.5 0.8 3.3 0.5 0.7 1.3 1.1 2.3 1.1s1.8-0.4 2.3-1.1c0.5-0.8 0.8-1.9 0.8-3.3z"/>
    <path class="st6" d="m345.7 439.9h-1.9v-1.3c-0.6 0.5-1.2 0.9-1.7 1.2s-1.1 0.4-1.8 0.4c-0.5 0-1-0.1-1.4-0.2-0.4-0.2-0.8-0.4-1.2-0.8s-0.6-0.8-0.8-1.3-0.3-1.2-0.3-2v-7.4h1.9v6.5c0 0.6 0 1.1 0.1 1.5 0 0.4 0.1 0.8 0.3 1.1s0.4 0.5 0.6 0.6c0.3 0.1 0.7 0.2 1.2 0.2s1-0.1 1.5-0.4 1-0.6 1.5-1v-8.6h1.9v11.5z"/>
    <path class="st6" d="m357.9 439.9h-1.9v-6.5c0-0.5 0-1-0.1-1.5s-0.1-0.8-0.3-1.1-0.4-0.5-0.7-0.6-0.7-0.2-1.1-0.2c-0.5 0-1 0.1-1.5 0.4s-1 0.6-1.5 1v8.6h-1.9v-11.5h1.9v1.3c0.6-0.5 1.1-0.9 1.7-1.2s1.2-0.4 1.8-0.4c1.1 0 2 0.4 2.6 1.1s1 1.8 1 3.2z"/>
    <path class="st6" d="m364.5 440.1c-1.1 0-1.9-0.3-2.5-0.9s-0.9-1.5-0.9-2.8v-6.3h-1.3v-1.6h1.3v-3.3h1.9v3.3h3.5v1.6h-3.5v5.4 1.3c0 0.3 0.1 0.6 0.2 0.9 0.1 0.2 0.3 0.4 0.6 0.5s0.6 0.2 1.1 0.2c0.3 0 0.6 0 0.9-0.1s0.5-0.2 0.6-0.2h0.1v1.7c-0.4 0.1-0.7 0.2-1.1 0.2-0.3 0.1-0.6 0.1-0.9 0.1z"/>
    <path class="st6" d="m371.5 440.2c-0.8 0-1.5-0.1-2.1-0.3-0.7-0.2-1.2-0.4-1.7-0.7v-2.2h0.1c0.2 0.1 0.4 0.3 0.6 0.4 0.2 0.2 0.5 0.3 0.9 0.5 0.3 0.2 0.7 0.3 1.1 0.4s0.8 0.2 1.2 0.2c0.3 0 0.6 0 1-0.1 0.3-0.1 0.6-0.2 0.8-0.3 0.2-0.2 0.4-0.3 0.5-0.5s0.2-0.4 0.2-0.8c0-0.5-0.1-0.8-0.4-1-0.2-0.2-0.7-0.4-1.3-0.6-0.2-0.1-0.6-0.1-1-0.2s-0.8-0.2-1.1-0.3c-0.9-0.3-1.5-0.6-1.9-1.2-0.4-0.5-0.6-1.2-0.6-1.9 0-1 0.4-1.9 1.2-2.5s1.8-1 3.1-1c0.6 0 1.3 0.1 1.9 0.2s1.2 0.4 1.6 0.6v2.1h-0.1c-0.5-0.4-1-0.7-1.6-0.9s-1.2-0.3-1.8-0.3-1.2 0.1-1.6 0.4-0.7 0.7-0.7 1.2 0.1 0.8 0.4 1.1c0.3 0.2 0.7 0.4 1.3 0.6 0.3 0.1 0.6 0.1 1 0.2s0.7 0.2 1.1 0.3c0.8 0.2 1.5 0.6 1.9 1.1s0.6 1.2 0.6 2c0 0.5-0.1 1-0.3 1.4s-0.5 0.8-0.9 1.1-0.9 0.6-1.4 0.8c-0.6 0.1-1.2 0.2-2 0.2z"/>
   </g>
  </g>
 </g>
 <style type="text/css">.st0{fill:none;}
	.st1{fill:#F7BC60;}
	.st2{fill:#FFFFFF;}
	.st3{fill:#83AF41;}
	.st4{fill:#495B82;}
	.st5{fill:none;stroke:#443639;stroke-width:4.1356;}
	.st6{fill:#5C474A;}</style>
</svg>
